<svg width="58" height="58" viewBox="0 0 58 58" fill="none" xmlns="http://www.w3.org/2000/svg">
<g filter="url(#filter0_b_2929_5756)">
<path d="M29 0C12.9843 0 0 12.9843 0 29C0 45.0157 12.9843 58 29 58C45.0157 58 58 45.0157 58 29C58 12.9843 45.0157 0 29 0Z" fill="white" fill-opacity="0.15"/>
</g>
<path d="M30.0633 41H26.3801C25.7649 41 25.2645 40.4995 25.2645 39.8843V31.5766H23.1157C22.5004 31.5766 22 31.076 22 30.4609V26.901C22 26.2858 22.5004 25.7853 23.1157 25.7853H25.2645V24.0027C25.2645 22.2351 25.8195 20.7313 26.8693 19.654C27.9239 18.5719 29.3977 18 31.1314 18L33.9403 18.0046C34.5545 18.0056 35.0541 18.5061 35.0541 19.1202V22.4255C35.0541 23.0407 34.5538 23.5412 33.9388 23.5412L32.0475 23.5419C31.4707 23.5419 31.3239 23.6575 31.2925 23.693C31.2407 23.7518 31.1791 23.9179 31.1791 24.3768V25.7852H33.7966C33.9937 25.7852 34.1846 25.8338 34.3487 25.9254C34.7026 26.1231 34.9226 26.4971 34.9226 26.9012L34.9212 30.4611C34.9212 31.076 34.4208 31.5764 33.8056 31.5764H31.1791V39.8843C31.1791 40.4995 30.6785 41 30.0633 41ZM26.6128 39.6516H29.8306V30.9729C29.8306 30.5622 30.1649 30.2281 30.5755 30.2281H33.5729L33.5741 27.1337H30.5753C30.1647 27.1337 29.8306 26.7996 29.8306 26.3888V24.3768C29.8306 23.85 29.8841 23.2509 30.2817 22.8007C30.7622 22.2563 31.5193 22.1935 32.0472 22.1935L33.7057 22.1928V19.3526L31.1303 19.3484C28.3442 19.3484 26.6128 21.1319 26.6128 24.0027V26.3888C26.6128 26.7994 26.2787 27.1337 25.8681 27.1337H23.3483V30.2281H25.8681C26.2787 30.2281 26.6128 30.5622 26.6128 30.9729V39.6516Z" fill="white"/>
<defs>
<filter id="filter0_b_2929_5756" x="-25" y="-25" width="108" height="108" filterUnits="userSpaceOnUse" color-interpolation-filters="sRGB">
<feFlood flood-opacity="0" result="BackgroundImageFix"/>
<feGaussianBlur in="BackgroundImageFix" stdDeviation="12.5"/>
<feComposite in2="SourceAlpha" operator="in" result="effect1_backgroundBlur_2929_5756"/>
<feBlend mode="normal" in="SourceGraphic" in2="effect1_backgroundBlur_2929_5756" result="shape"/>
</filter>
</defs>
</svg>
