<svg width="58" height="58" viewBox="0 0 58 58" fill="none" xmlns="http://www.w3.org/2000/svg">
<g filter="url(#filter0_b_2929_5759)">
<path d="M29 0C12.9843 0 0 12.9843 0 29C0 45.0157 12.9843 58 29 58C45.0157 58 58 45.0157 58 29C58 12.9843 45.0157 0 29 0Z" fill="white" fill-opacity="0.15"/>
</g>
<path d="M40.9416 24.7596C40.8877 23.5369 40.69 22.6963 40.4068 21.968C40.1146 21.1948 39.665 20.5026 39.0761 19.9271C38.5006 19.3427 37.8038 18.8886 37.0396 18.601C36.307 18.3178 35.4708 18.12 34.2481 18.0661C33.0163 18.0077 32.6252 17.9941 29.501 17.9941C26.3767 17.9941 25.9857 18.0077 24.7584 18.0616C23.5357 18.1155 22.6951 18.3134 21.9669 18.5964C21.1936 18.8886 20.5014 19.3382 19.9259 19.9271C19.3415 20.5026 18.8876 21.1994 18.5998 21.9636C18.3165 22.6963 18.1188 23.5324 18.0649 24.7551C18.0064 25.9869 17.9929 26.3779 17.9929 29.5022C17.9929 32.6265 18.0064 33.0175 18.0604 34.2448C18.1143 35.4675 18.3122 36.3081 18.5954 37.0365C18.8876 37.8096 19.3415 38.5018 19.9259 39.0773C20.5014 39.6617 21.1981 40.1158 21.9623 40.4034C22.6951 40.6866 23.5311 40.8844 24.754 40.9383C25.9811 40.9924 26.3723 41.0057 29.4966 41.0057C32.6209 41.0057 33.0119 40.9924 34.2392 40.9383C35.4619 40.8844 36.3025 40.6866 37.0307 40.4034C38.5772 39.8055 39.7999 38.5828 40.3978 37.0365C40.6809 36.3037 40.8788 35.4675 40.9327 34.2448C40.9866 33.0175 41.0001 32.6265 41.0001 29.5022C41.0001 26.3779 40.9955 25.9869 40.9416 24.7596ZM38.8694 34.1549C38.8199 35.2787 38.6311 35.8856 38.4738 36.2902C38.0871 37.2927 37.2914 38.0883 36.289 38.475C35.8844 38.6323 35.2731 38.8211 34.1537 38.8704C32.9399 38.9245 32.5759 38.9379 29.5056 38.9379C26.4352 38.9379 26.0666 38.9245 24.8573 38.8704C23.7334 38.8211 23.1266 38.6323 22.722 38.475C22.2231 38.2906 21.769 37.9984 21.4004 37.6163C21.0183 37.2431 20.7261 36.7936 20.5417 36.2947C20.3844 35.8902 20.1956 35.2787 20.1463 34.1595C20.0922 32.9457 20.0789 32.5815 20.0789 29.5112C20.0789 26.4408 20.0922 26.0722 20.1463 24.8631C20.1956 23.7392 20.3844 23.1323 20.5417 22.7278C20.7261 22.2287 21.0183 21.7748 21.405 21.406C21.778 21.0239 22.2275 20.7317 22.7265 20.5475C23.1311 20.3902 23.7426 20.2014 24.8618 20.1519C26.0756 20.098 26.4398 20.0845 29.5099 20.0845C32.5849 20.0845 32.9489 20.098 34.1582 20.1519C35.2821 20.2014 35.8889 20.3902 36.2935 20.5475C36.7924 20.7317 37.2465 21.0239 37.6151 21.406C37.9972 21.7792 38.2894 22.2287 38.4738 22.7278C38.6311 23.1323 38.8199 23.7436 38.8694 24.8631C38.9233 26.0768 38.9368 26.4408 38.9368 29.5112C38.9368 32.5815 38.9233 32.9411 38.8694 34.1549Z" fill="white"/>
<path d="M29.501 23.5908C26.2375 23.5908 23.5896 26.2385 23.5896 29.5022C23.5896 32.7659 26.2375 35.4136 29.501 35.4136C32.7647 35.4136 35.4123 32.7659 35.4123 29.5022C35.4123 26.2385 32.7647 23.5908 29.501 23.5908ZM29.501 33.3368C27.3838 33.3368 25.6664 31.6196 25.6664 29.5022C25.6664 27.3848 27.3838 25.6676 29.501 25.6676C31.6184 25.6676 33.3355 27.3848 33.3355 29.5022C33.3355 31.6196 31.6184 33.3368 29.501 33.3368Z" fill="white"/>
<path d="M37.0271 23.3576C37.0271 24.1197 36.4092 24.7376 35.6469 24.7376C34.8848 24.7376 34.2668 24.1197 34.2668 23.3576C34.2668 22.5953 34.8848 21.9775 35.6469 21.9775C36.4092 21.9775 37.0271 22.5953 37.0271 23.3576Z" fill="white"/>
<defs>
<filter id="filter0_b_2929_5759" x="-25" y="-25" width="108" height="108" filterUnits="userSpaceOnUse" color-interpolation-filters="sRGB">
<feFlood flood-opacity="0" result="BackgroundImageFix"/>
<feGaussianBlur in="BackgroundImageFix" stdDeviation="12.5"/>
<feComposite in2="SourceAlpha" operator="in" result="effect1_backgroundBlur_2929_5759"/>
<feBlend mode="normal" in="SourceGraphic" in2="effect1_backgroundBlur_2929_5759" result="shape"/>
</filter>
</defs>
</svg>
