<svg width="396" height="80" viewBox="0 0 396 80" fill="none" xmlns="http://www.w3.org/2000/svg">
<path d="M136.362 24.0286C136.022 22.9453 135.192 22.252 133.199 22.2737C132.477 22.2809 124.945 22.3387 124.945 22.3387C124.945 22.3387 124.281 24.2597 123.985 25.1047C124.382 23.9564 118.865 22.6709 118.186 22.4831C114.027 21.3348 109.839 21.7609 106.055 23.8336C100.654 26.7947 97.6064 33.8075 97.7075 39.8596C97.8086 45.8829 101.073 51.8412 106.264 54.8818C111.464 57.9295 118.446 57.7923 123.335 54.2751C125.025 58.399 122.606 63.7073 118.381 65.1372C114.157 66.5672 109.016 63.8228 107.846 59.5184C105.68 60.3851 103.513 61.2517 101.347 62.1184C99.0723 63.0284 97.2526 62.8984 97.9747 65.4478C99.2745 70.0339 103.506 72.7494 107.867 73.8472C120.15 76.931 135.351 74.0855 136.195 59.0778C136.585 52.1301 136.629 45.1679 136.607 38.213C136.593 34.8186 136.564 31.4314 136.549 28.0369C136.549 26.5347 136.694 25.0975 136.362 24.0286ZM117.508 46.7568C113.038 46.7351 110.07 43.7524 110.041 39.2746C110.012 34.9125 113.139 31.6841 117.428 31.648C121.79 31.6191 125.169 34.9991 125.133 39.3396C125.09 43.6657 121.883 46.7857 117.508 46.7568Z" fill="white"/>
<path d="M55.3419 48.5475C50.7132 35.8654 40.5894 8.43555 40.5894 8.43555L38.4808 8.44277L24.5732 8.43555C24.5732 8.43555 24.3565 8.86165 23.8294 10.3278C18.6736 24.5338 13.4239 38.7109 8.2176 52.9025C7.57493 54.6358 7.00447 56.3908 6.27515 58.5213H11.7776C19.4896 58.5213 19.8362 58.5141 19.8362 58.5141L22.5369 49.248C22.5369 49.248 32.278 49.2841 35.9751 49.2841C37.7371 49.2841 42.4307 49.2841 42.4307 49.2841L45.7307 58.5141C45.7307 58.5141 46.229 58.4563 46.7128 58.4708C50.641 58.5502 54.5765 58.5141 58.9596 58.5141C57.7609 55.1919 56.555 51.8697 55.3419 48.5475ZM36.6684 38.357C36.6034 38.357 36.56 38.357 36.5384 38.357C35.773 38.357 35.0148 38.357 34.2493 38.357C31.6931 38.357 29.1296 38.357 26.5734 38.357C28.5881 32.5432 30.4727 27.1193 32.5668 21.0743C34.6609 27.076 36.5528 32.7382 38.5097 38.357C38.4953 38.3281 37.1305 38.3498 36.6684 38.357Z" fill="white"/>
<path d="M209.026 42.401C208.629 41.4116 208.369 40.8482 208.174 40.2633C204.853 30.47 201.567 20.6623 198.173 10.8979C197.841 9.95179 197.415 8.44236 197.415 8.44236C197.415 8.44236 187.919 8.40625 183.226 8.40625C183.854 8.40625 186.771 18.0695 187.197 19.2251C191.364 30.5639 199.653 53.1332 199.653 53.1332L202.101 58.5787H216.103L217.07 56.2893C217.07 56.2893 229.296 24.5189 234.812 8.42792C231.953 8.42792 220.703 8.44236 220.703 8.44236C220.703 8.44236 219.619 11.5696 219.295 12.6962L209.026 42.401Z" fill="white"/>
<path d="M364.423 22.3238C364.567 23.4794 364.661 24.2449 364.798 25.3138C369.752 21.6955 374.994 21.0094 380.619 22.2299C385.984 23.3999 389.581 26.9243 389.761 32.4421C390.043 40.9859 389.833 49.8258 389.833 58.6369C385.645 58.6369 381.572 58.6369 377.204 58.6369C377.139 57.2213 377.023 54.1158 377.023 54.1158C377.023 54.1158 377.052 43.1237 376.987 37.6276C376.944 33.7348 375.463 32.0087 372.178 31.7487C367.109 31.3515 364.971 35.1504 364.776 39.6354C364.553 44.6981 364.719 58.6369 364.719 58.6369C364.719 58.6369 363.997 58.6947 361.123 58.6947C358.87 58.6947 356.595 58.6224 353.865 58.6224C352.392 58.6224 351.779 58.5719 351.779 58.5719C351.779 58.5719 351.807 35.6126 351.844 25.126C351.844 24.6855 351.858 22.2877 351.858 22.2877C351.858 22.2877 355.209 22.331 356.833 22.3094C357.599 22.3021 364.401 22.1577 364.423 22.3238Z" fill="white"/>
<path d="M156.457 22.3238C156.602 23.4794 156.696 24.2449 156.833 25.3138C161.787 21.6955 167.029 21.0094 172.654 22.2299C178.019 23.3999 181.615 26.9243 181.796 32.4421C182.078 40.9859 181.868 49.8258 181.868 58.6369C177.68 58.6369 173.607 58.6369 169.239 58.6369C169.174 57.2213 169.058 54.1158 169.058 54.1158C169.058 54.1158 169.087 43.1237 169.022 37.6276C168.979 33.7348 167.498 32.0087 164.213 31.7487C159.144 31.3515 157.006 35.1504 156.811 39.6354C156.587 44.6981 156.754 58.6369 156.754 58.6369C156.754 58.6369 156.031 58.6947 153.157 58.6947C150.905 58.6947 148.63 58.6224 145.9 58.6224C144.427 58.6224 143.813 58.5719 143.813 58.5719C143.813 58.5719 143.842 35.6126 143.878 25.126C143.878 24.6855 143.893 22.2877 143.893 22.2877C143.893 22.2877 147.243 22.331 148.868 22.3094C149.634 22.3021 156.436 22.1577 156.457 22.3238Z" fill="white"/>
<path d="M343.265 28.0293C337.387 21.421 327.083 20.0343 318.974 22.786C315.717 23.891 312.713 25.776 310.496 28.4337C305.846 34.0165 305.232 42.4375 308.301 48.9086C311.962 56.6363 320.801 59.6841 328.924 59.0846C335.864 58.5718 342.825 55.2641 346.038 48.8075C349.381 42.0981 348.305 33.8503 343.395 28.1882C343.359 28.1304 343.316 28.0798 343.265 28.0293ZM326.808 48.988C322.187 48.9375 319.132 45.4925 319.169 40.3864C319.205 35.1503 322.375 31.6331 327.047 31.6476C332.044 31.662 335.43 35.3164 335.365 40.6103C335.3 45.7308 331.921 49.0386 326.808 48.988Z" fill="white"/>
<path d="M284.84 31.4812C282.464 32.0446 280.088 32.6079 277.713 33.1712C277.128 33.3084 276.261 33.5251 276.261 33.5251C276.261 33.5251 274.882 32.4707 274.42 31.9868C272.701 30.2101 269.524 29.0546 267.351 30.7012C266.925 31.0262 266.636 31.5968 266.802 32.1023C266.881 32.3407 267.054 32.5429 267.242 32.7162C268.975 34.3123 272.398 34.5723 274.579 35.2368C276.124 35.7062 277.705 36.1395 279.157 36.8329C284.334 39.3245 286.725 43.0295 286.4 47.7889C286.277 49.5655 285.779 51.3133 284.854 52.8372C283.995 54.26 282.796 55.4588 281.424 56.3977C279.987 57.3727 278.377 58.066 276.709 58.5355C274.954 59.0338 273.135 59.2866 271.315 59.3371C269.481 59.3877 267.639 59.236 265.841 58.8821C264.137 58.5427 262.455 58.0155 260.895 57.2427C258.794 56.2099 256.952 54.7149 255.674 52.7361C255.306 52.1655 254.988 51.5516 254.743 50.9161C254.678 50.75 254.078 48.9372 254.208 48.9011C256.663 48.1717 259.119 47.435 261.574 46.7056C262.419 46.4528 263.726 46.1278 263.726 46.1278C264.072 46.4456 264.419 46.7706 264.751 47.0956C265.314 47.6444 265.805 48.2439 266.412 48.7494C267.488 49.6378 268.773 50.3889 270.196 50.5044C271.438 50.5983 272.839 50.2372 273.51 49.1828C275.258 46.4311 270.152 45.1456 268.434 44.6689C264.657 43.6217 260.541 42.755 257.725 39.8012C255.725 37.7067 254.685 34.724 254.959 31.8351C255.234 28.9462 256.801 26.209 259.147 24.5118C261.263 22.9807 263.884 22.3163 266.47 21.9552C270.268 21.428 274.261 21.5074 277.785 23.0241C281.294 24.5407 284.277 27.6824 284.84 31.4812Z" fill="white"/>
<path d="M289.512 12.3142C289.635 8.81864 292.335 5.44588 296.379 5.50366C303.593 5.60477 305.658 15.8603 299.015 18.713C296.69 19.7097 293.823 19.2908 291.88 17.6658C290.162 16.2286 289.447 14.2569 289.512 12.3142Z" fill="white"/>
<path d="M243.933 19.211C240.041 19.2327 237.03 16.3077 236.993 12.4727C236.957 8.7461 240.07 5.57557 243.81 5.52501C247.493 5.47446 250.706 8.63055 250.764 12.35C250.822 16.1272 247.767 19.1966 243.933 19.211Z" fill="white"/>
<path d="M87.5549 19.1751C83.67 19.139 80.7022 16.1346 80.7672 12.2996C80.8321 8.59465 84.0816 5.47467 87.7788 5.56133C91.3604 5.648 94.4221 8.80409 94.4221 12.3863C94.4149 16.2357 91.4037 19.2112 87.5549 19.1751Z" fill="white"/>
<path d="M302.589 22.3594H289.837V58.5714H302.589V22.3594Z" fill="white"/>
<path d="M250.251 22.3594H237.499V58.5714H250.251V22.3594Z" fill="white"/>
<path d="M93.9671 22.3594H81.2148V58.5714H93.9671V22.3594Z" fill="white"/>
<path d="M74.2247 6.18945H61.4724V58.5791H74.2247V6.18945Z" fill="white"/>
</svg>
