<svg width="7" height="10" viewBox="0 0 7 10" fill="none" xmlns="http://www.w3.org/2000/svg">
<path d="M5.88185 4.38929L5.88182 4.38932L1.62185 0.468377L1.61848 0.46527L1.61843 0.465323C1.44436 0.314667 1.18025 0.316075 1.00828 0.443642L0.999213 0.450372L0.999491 0.450693C0.814125 0.611121 0.812968 0.872657 0.974171 1.03543L0.979056 1.04036L0.979165 1.04024L5.23914 4.96118L5.24251 4.96428L5.24256 4.96423C5.2496 4.97033 5.25411 4.979 5.25411 4.99163C5.25411 5.00413 5.24929 5.02086 5.23502 5.03684L0.98067 8.9526C0.888192 9.03361 0.843506 9.14385 0.850759 9.25684C0.857885 9.36785 0.913993 9.46954 0.999491 9.54354H0.999492M5.88185 4.38929L0.999491 9.54354L1.09715 9.43069L0.999492 9.54354M5.88185 4.38929L5.88421 4.39156C6.06559 4.56598 6.15 4.78051 6.15 4.99711C6.15 5.22231 6.04182 5.43485 5.86731 5.60267L5.86733 5.60269L5.86514 5.60471L1.62207 9.52565L1.62212 9.52571L1.61843 9.52891C1.45362 9.67155 1.18352 9.7028 0.999492 9.54354M5.88185 4.38929L0.999492 9.54354" fill="white" stroke="white" stroke-width="0.3"/>
</svg>
