<svg width="32" height="30" viewBox="0 0 32 30" fill="none" xmlns="http://www.w3.org/2000/svg">
<g id="Group">
<path id="Vector" d="M21.4363 14.4182C21.319 12.5601 19.8293 11.0789 17.9711 10.9726M21.4363 14.4182C21.545 16.1298 21.5951 17.8664 21.5871 19.5874C24.0887 19.6032 26.5879 19.657 29.0726 19.75C30.2779 19.7945 31.2957 20.6959 31.4928 21.8932C31.7811 23.6409 31.7811 25.4133 31.4926 27.1612C31.2956 28.358 30.2778 29.2595 29.0725 29.3049C28.811 29.3146 28.5497 29.3237 28.2884 29.3328M21.4363 14.4182L21.586 14.4087C21.586 14.4087 21.586 14.4087 21.586 14.4088C21.6917 16.0742 21.7421 17.7631 21.7376 19.4384C24.1908 19.4554 26.6415 19.5089 29.0782 19.6001C30.3554 19.6473 31.4322 20.6018 31.6408 21.8688C31.9317 23.6326 31.9317 25.4215 31.6406 27.1856C31.4321 28.4521 30.3553 29.4067 29.0782 29.4548L29.0781 29.4548C28.8172 29.4645 28.5564 29.4736 28.2958 29.4826L28.2937 29.4827L28.2884 29.3328M21.4363 14.4182L28.2936 29.4827M17.9711 10.9726L29.0388 20.6577C29.8142 20.6864 30.4693 21.2682 30.5965 22.0411C30.8686 23.6907 30.8686 25.3637 30.5965 27.0135C30.4693 27.7862 29.8141 28.3681 29.0387 28.3973M17.9711 10.9726C15.6954 10.8432 13.4 10.7775 11.1486 10.7775C9.93175 10.7775 8.70192 10.7974 7.46933 10.8355L17.9711 10.9726ZM28.2884 29.3328C28.0381 29.3417 27.8275 29.1454 27.8187 28.8947C27.81 28.6441 28.0061 28.4338 28.2568 28.4251C28.5175 28.4161 28.7781 28.407 29.0387 28.3973M28.2884 29.3328L28.2936 29.4827M29.0387 28.3973L29.0331 28.2474M29.0387 28.3973L29.0331 28.2474C29.0331 28.2474 29.0331 28.2474 29.0331 28.2474M29.0331 28.2474C29.7363 28.2209 30.3327 27.6924 30.4485 26.9891L30.4485 26.9891C30.718 25.3554 30.718 23.699 30.4485 22.0655L30.4485 22.0654C30.3327 21.362 29.7363 20.8337 29.0332 20.8076L29.0331 20.8076C23.0743 20.5846 17.0317 20.5846 11.0729 20.8076L11.0728 20.8076C10.3695 20.8337 9.77319 21.362 9.6574 22.0653L9.6574 22.0653C9.38795 23.699 9.38795 25.3554 9.6574 26.989L9.65741 26.989C9.77319 27.6924 10.3697 28.2209 11.0731 28.2474C16.1703 28.4378 21.3427 28.4655 26.4461 28.3295L26.4465 28.3295C26.7759 28.3216 27.0572 28.5829 27.0661 28.9174V28.9174C27.075 29.2508 26.8118 29.5285 26.4783 29.5374C24.3451 29.5941 22.1997 29.6226 20.053 29.6226C17.0381 29.6226 14.0202 29.5665 11.0278 29.4547C9.9904 29.4158 9.08594 28.7785 8.67083 27.8627C7.22732 27.8326 5.76574 27.7766 4.31834 27.6935C4.31834 27.6935 4.31833 27.6935 4.31832 27.6935L4.32691 27.5438L29.0331 28.2474ZM29.0331 28.2474C28.7727 28.2571 28.5123 28.2662 28.2516 28.2752C27.9181 28.2868 27.6572 28.5665 27.6688 28.8999L27.6688 28.9C27.6805 29.2333 27.9604 29.4945 28.2936 29.4827M29.0331 28.2474L28.2936 29.4827M6.923 7.28755C6.9231 7.28755 6.9232 7.28756 6.9233 7.28756L6.91949 7.43751L6.923 7.28755ZM6.923 7.28755C6.58674 7.27917 6.31266 7.54456 6.30486 7.87735C6.2826 8.82766 6.26846 9.7837 6.26177 10.7287L6.923 7.28755ZM1.91691 14.4851C2.00105 13.1606 3.06309 12.1048 4.38675 12.0291C6.64246 11.9008 8.9175 11.8357 11.1486 11.8357C13.38 11.8357 15.6552 11.9008 17.9108 12.0291C19.2349 12.1048 20.2966 13.1606 20.3802 14.485L20.3802 14.4851C20.4842 16.1234 20.5338 17.7849 20.5294 19.433C17.3553 19.4268 14.18 19.4821 11.028 19.6001C9.75075 19.6474 8.67382 20.6018 8.46531 21.8687C8.20384 23.4536 8.17757 25.0586 8.38597 26.6474C7.0579 26.6163 5.71675 26.5634 4.38752 26.4872L4.38749 26.4872C3.06345 26.4115 2.00175 25.3557 1.91813 24.0313L1.91812 24.0313C1.71743 20.8599 1.71701 17.6481 1.91691 14.4851ZM1.91691 14.4851L1.76721 14.4756M1.91691 14.4851L1.76721 14.4756M1.76721 14.4756C1.85616 13.0755 2.9787 11.9593 4.3782 11.8793M1.76721 14.4756C1.56691 17.6449 1.56734 20.8631 1.76842 24.0408L4.3782 11.8793M4.3782 11.8793C6.63672 11.7509 8.91461 11.6857 11.1486 11.6857C13.3829 11.6857 15.6609 11.7509 17.9194 11.8793H4.3782ZM11.1485 0.270898C12.0912 0.270898 13.0446 0.305848 13.9824 0.374842L11.1485 0.270898ZM11.1485 0.270898C10.2062 0.270898 9.25296 0.305849 8.3153 0.374844M11.1485 0.270898L8.3153 0.374844M8.3153 0.374844C5.3602 0.591813 3.05496 2.98401 2.95419 5.93935M8.3153 0.374844L2.95419 5.93935M2.95419 5.93935C2.89459 7.67842 2.86114 9.44827 2.85268 11.207L2.95419 5.93935ZM4.06349 10.8465C4.07452 9.22018 4.10671 7.5872 4.16172 5.9806L4.16172 5.98058C4.24139 3.64359 6.06458 1.75157 8.40383 1.57987L8.40386 1.57987C9.31219 1.51305 10.2357 1.47915 11.1485 1.47915C12.0617 1.47915 12.9854 1.51305 13.8938 1.57987L13.8938 1.57987C16.233 1.75163 18.0562 3.6437 18.1359 5.981L18.1359 5.98114C18.1501 6.38663 18.1629 6.80367 18.174 7.2269H15.9766C15.9659 6.83577 15.9539 6.44382 15.9405 6.05594L15.9405 6.05587C15.8983 4.84288 14.9485 3.86111 13.7327 3.77111L13.7325 3.77109C12.8749 3.70859 12.0056 3.67684 11.1485 3.67684C10.2918 3.67684 9.42267 3.70852 8.56456 3.77109L8.5644 3.77111C7.34905 3.86105 6.39927 4.84284 6.35705 6.0558L6.35705 6.05581C6.34545 6.38927 6.60633 6.66892 6.93969 6.68062L4.06349 10.8465ZM7.56457 6.09791C7.58525 5.50381 8.05215 5.02071 8.65293 4.97613L6.93973 6.68062C7.27299 6.69236 7.55298 6.43131 7.56457 6.09791ZM8.6531 4.97612C9.4815 4.91572 10.3211 4.8851 11.1485 4.8851C11.9763 4.8851 12.8161 4.91572 13.644 4.97606C14.2453 5.02057 14.7122 5.5037 14.7329 6.09753C14.7329 6.09755 14.733 6.09758 14.733 6.09761L14.8829 6.09239C14.9027 6.67173 14.9198 7.26034 14.9336 7.8418C14.9395 8.0883 15.141 8.28515 15.3876 8.28515H18.7929L8.6531 4.97612ZM19.2249 8.25342C19.3385 8.13723 19.4005 7.98007 19.3969 7.81757C19.3827 7.17762 19.3647 6.54557 19.3435 5.93928C19.2426 2.98395 16.9374 0.591882 13.9824 0.374843L19.2249 8.25342Z" fill="#6981AC" stroke="#6981AC" stroke-width="0.3"/>
<path id="Vector_2" d="M14.4394 23.2163L14.3644 23.0864C14.6533 22.9196 15.0228 23.0185 15.1896 23.3075C15.3565 23.5965 15.2575 23.966 14.9685 24.1329L14.9685 24.1329L14.083 24.6442L14.9685 25.1554C15.2575 25.3222 15.3565 25.6917 15.1896 25.9807L15.1896 25.9807C15.0777 26.1746 14.8744 26.2828 14.666 26.2828C14.5634 26.2828 14.4593 26.2566 14.3644 26.2018C14.3644 26.2018 14.3644 26.2018 14.3644 26.2018L13.4789 25.6905V26.713C13.4789 27.0466 13.2084 27.3171 12.8748 27.3171C12.5411 27.3171 12.2706 27.0466 12.2706 26.713V25.6905L11.3852 26.2017C11.3852 26.2017 11.3852 26.2017 11.3852 26.2017C11.2902 26.2565 11.1861 26.2827 11.0835 26.2827C10.8752 26.2827 10.6719 26.1746 10.5599 25.9806L14.4394 23.2163ZM14.4394 23.2163L14.3644 23.0864L13.4789 23.5977M14.4394 23.2163L13.4789 23.5977M13.4789 23.5977V22.5752C13.4789 22.2416 13.2084 21.9711 12.8748 21.9711C12.5411 21.9711 12.2706 22.2416 12.2706 22.5752V23.5977L11.3852 23.0865C11.3852 23.0865 11.3852 23.0865 11.3852 23.0865C11.0962 22.9196 10.7267 23.0187 10.5599 23.3076L13.4789 23.5977ZM10.781 24.1328L11.6665 24.6441L10.5599 23.3076C10.3931 23.5966 10.4921 23.966 10.781 24.1328Z" fill="#6981AC" stroke="#6981AC" stroke-width="0.3"/>
<path id="Vector_3" d="M19.6818 25.9806L19.6818 25.9806C19.5698 26.1745 19.3666 26.2827 19.1582 26.2827C19.0556 26.2827 18.9515 26.2565 18.8566 26.2017C18.8566 26.2017 18.8566 26.2017 18.8566 26.2017L17.9711 25.6905V26.713C17.9711 27.0466 17.7006 27.3171 17.367 27.3171C17.0333 27.3171 16.7628 27.0466 16.7628 26.713V25.6905L15.8774 26.2017C15.8774 26.2017 15.8774 26.2017 15.8773 26.2017C15.7824 26.2565 15.6783 26.2827 15.5757 26.2827C15.3674 26.2827 15.1641 26.1746 15.0521 25.9806H19.6818ZM19.6818 25.9806C19.8486 25.6917 19.7496 25.3222 19.4607 25.1554L18.5752 24.6441L19.4607 24.1329C19.4607 24.1328 19.4607 24.1328 19.4607 24.1328C19.7497 23.9661 19.8486 23.5966 19.6818 23.3076C19.515 23.0186 19.1454 22.9197 18.8566 23.0865L17.9711 23.5977V22.5752C17.9711 22.2416 17.7006 21.9711 17.367 21.9711C17.0333 21.9711 16.7628 22.2416 16.7628 22.5752V23.5977L15.8774 23.0865C15.8774 23.0865 15.8774 23.0865 15.8773 23.0865C15.5884 22.9196 15.2189 23.0187 15.0521 23.3076C14.8853 23.5965 14.9843 23.966 15.2732 24.1328L16.1587 24.6441L19.6818 25.9806Z" fill="#6981AC" stroke="#6981AC" stroke-width="0.3"/>
<path id="Vector_4" d="M24.173 25.9806L24.173 25.9806C24.061 26.1745 23.8578 26.2827 23.6494 26.2827C23.5468 26.2827 23.4427 26.2565 23.3478 26.2017C23.3478 26.2017 23.3478 26.2017 23.3478 26.2017L22.4623 25.6905V26.713C22.4623 27.0466 22.1918 27.3171 21.8582 27.3171C21.5245 27.3171 21.254 27.0466 21.254 26.713V25.6905L20.3686 26.2017C20.3686 26.2017 20.3686 26.2017 20.3686 26.2017C20.2736 26.2565 20.1695 26.2827 20.0669 26.2827C19.8586 26.2827 19.6553 26.1746 19.5433 25.9806H24.173ZM24.173 25.9806C24.3399 25.6917 24.2409 25.3222 23.9519 25.1554L23.0664 24.6441L23.9519 24.1329C23.9519 24.1328 23.9519 24.1328 23.9519 24.1328C24.2409 23.9661 24.3398 23.5966 24.173 23.3076C24.0062 23.0186 23.6366 22.9197 23.3478 23.0865M24.173 25.9806L23.3478 23.0865M23.3478 23.0865L22.4623 23.5977M23.3478 23.0865L22.4623 23.5977M22.4623 23.5977V22.5752C22.4623 22.2416 22.1918 21.9711 21.8582 21.9711C21.5245 21.9711 21.254 22.2416 21.254 22.5752V23.5977" fill="#6981AC" stroke="#6981AC" stroke-width="0.3"/>
<path id="Vector_5" d="M28.6653 25.9806L28.6653 25.9806C28.5533 26.1745 28.35 26.2827 28.1417 26.2827C28.0391 26.2827 27.935 26.2565 27.84 26.2017C27.84 26.2017 27.84 26.2017 27.84 26.2017L26.9545 25.6904V26.713C26.9545 27.0466 26.684 27.3171 26.3504 27.3171C26.0167 27.3171 25.7462 27.0466 25.7462 26.713V25.6905L24.8608 26.2017C24.8608 26.2017 24.8607 26.2017 24.8607 26.2017C24.7658 26.2565 24.6617 26.2827 24.5591 26.2827C24.3508 26.2827 24.1475 26.1746 24.0355 25.9806C24.0355 25.9806 24.0355 25.9806 24.0355 25.9806L28.6653 25.9806ZM28.6653 25.9806C28.8321 25.6917 28.7331 25.3222 28.4442 25.1554M28.6653 25.9806L28.4442 25.1554M27.915 23.2163L27.84 23.0864C28.1289 22.9196 28.4984 23.0185 28.6652 23.3075C28.6652 23.3075 28.6652 23.3075 28.6652 23.3076L28.5353 23.3825L27.915 23.2163ZM27.915 23.2163L27.84 23.0864L26.9545 23.5977M27.915 23.2163L26.9545 23.5977M28.4442 25.1554L27.5586 24.644L28.4442 25.1554ZM26.9545 23.5977V22.5752C26.9545 22.2416 26.684 21.9711 26.3504 21.9711C26.0167 21.9711 25.7462 22.2416 25.7462 22.5752V23.5977L24.8608 23.0865C24.8608 23.0865 24.8608 23.0865 24.8607 23.0865C24.5718 22.9196 24.2023 23.0187 24.0355 23.3076C23.8687 23.5965 23.9677 23.966 24.2566 24.1328L25.1421 24.6441L26.9545 23.5977Z" fill="#6981AC" stroke="#6981AC" stroke-width="0.3"/>
<path id="Vector_6" d="M21.5397 3.44041C21.2379 3.2976 20.8779 3.42659 20.7353 3.7282C20.7353 3.72821 20.7353 3.72821 20.7353 3.72822L19.8593 5.58013C19.7166 5.88172 19.8455 6.24192 20.1471 6.38458L20.1471 6.38458C20.2303 6.42393 20.3183 6.4427 20.4051 6.4427C20.6311 6.4427 20.8482 6.31517 20.9515 6.0968L20.9515 6.09677L21.8275 4.24485L21.8275 4.24484C21.9702 3.9432 21.8413 3.58307 21.5397 3.44041ZM21.5397 3.44041L21.4756 3.576L21.5397 3.4404C21.5397 3.4404 21.5397 3.44041 21.5397 3.44041Z" fill="#6981AC" stroke="#6981AC" stroke-width="0.3"/>
<path id="Vector_7" d="M21.0309 8.85437L21.0309 8.85437C20.7293 8.71172 20.6004 8.35162 20.7431 8.05002L21.0309 8.85437ZM21.0309 8.85437L22.8828 9.73029L22.9469 9.59469M21.0309 8.85437L22.9469 9.59469M22.9469 9.59469L22.8828 9.73029C22.966 9.76964 23.054 9.78841 23.1408 9.78841C23.3668 9.78841 23.584 9.66082 23.6872 9.44249L23.6873 9.44249M22.9469 9.59469L23.6873 9.44249M23.6873 9.44249C23.8299 9.14088 23.701 8.78075 23.3994 8.6381L23.3994 8.63809M23.6873 9.44249L23.3994 8.63809M23.3994 8.63809L21.5475 7.76221C21.5475 7.7622 21.5475 7.76218 21.5475 7.76217M23.3994 8.63809L21.5475 7.76217M21.5475 7.76217C21.2458 7.61938 20.8856 7.74837 20.7431 8.04998L21.5475 7.76217Z" fill="#6981AC" stroke="#6981AC" stroke-width="0.3"/>
<path id="Vector_8" d="M21.563 7.45936L21.5629 7.4594C21.496 7.48327 21.4273 7.49477 21.3596 7.49477C21.1117 7.49477 20.8792 7.34108 20.7907 7.09402C20.6783 6.77988 20.8419 6.43406 21.156 6.32174L21.563 7.45936ZM21.563 7.45936L23.4919 6.76921L23.4919 6.7692C23.806 6.65678 23.9697 6.31109 23.8572 5.9969C23.7449 5.68285 23.3991 5.51899 23.0849 5.63159C23.0849 5.6316 23.0848 5.63162 23.0848 5.63163L21.1561 6.32173L21.563 7.45936Z" fill="#6981AC" stroke="#6981AC" stroke-width="0.3"/>
</g>
</svg>
