<svg width="506" height="71" viewBox="0 0 506 71" fill="none" xmlns="http://www.w3.org/2000/svg">
<path d="M125.489 9.20166H494.305C499.951 9.20166 504.529 13.7791 504.529 19.4256V59.2989C504.529 64.9454 499.951 69.5228 494.305 69.5228H11.2239C5.57741 69.5228 1 64.9454 1 59.2989V19.4256C1 13.7791 5.57741 9.20166 11.2239 9.20166H25.5068" stroke="#6981AC" stroke-width="1.5" stroke-linecap="round"/>
<mask id="mask0_2657_14677" style="mask-type:luminance" maskUnits="userSpaceOnUse" x="9" y="17" width="45" height="41">
<path d="M9.70898 17.4209H53.709V57.4209H9.70898V17.4209Z" fill="white"/>
</mask>
<g mask="url(#mask0_2657_14677)">
<path d="M32.6929 39.7007C30.0504 39.7007 27.9004 37.5507 27.9004 34.9082C27.9004 32.2658 30.0504 30.1157 32.6929 30.1157C35.3353 30.1157 37.4853 32.2658 37.4853 34.9082C37.4853 37.5507 35.3353 39.7007 32.6929 39.7007Z" stroke="#6981AC" stroke-width="1.5" stroke-miterlimit="10" stroke-linecap="round" stroke-linejoin="round"/>
<path d="M23.7461 50.2422C23.7467 50.2344 23.7473 50.2266 23.7485 50.2188C24.1828 45.6612 28.0215 42.0968 32.693 42.0968C37.3645 42.0968 41.2026 45.6606 41.6382 50.2182" stroke="#6981AC" stroke-width="1.5" stroke-miterlimit="10" stroke-linecap="round" stroke-linejoin="round"/>
<path d="M44.3143 28.6778C44.3143 29.0087 44.0461 29.2769 43.7153 29.2769C43.3845 29.2769 43.1162 29.0087 43.1162 28.6778C43.1162 28.3469 43.3845 28.0787 43.7153 28.0787C44.0461 28.0787 44.3143 28.3469 44.3143 28.6778Z" fill="#6981AC"/>
<path d="M45.2974 30.8589C46.6501 33.0868 47.4288 35.7027 47.4288 38.5024C47.4288 43.2823 45.1589 47.5272 41.6371 50.2182V50.2188C39.1576 52.1142 36.0574 53.2393 32.6919 53.2393C29.327 53.2393 26.2269 52.1142 23.7474 50.2188C20.2255 47.5278 17.9551 43.2829 17.9551 38.5024C17.9551 30.3576 24.5459 23.7656 32.6919 23.7656C36.0988 23.7656 39.2341 24.9188 41.7288 26.8566" stroke="#6981AC" stroke-width="1.5" stroke-miterlimit="10" stroke-linecap="round" stroke-linejoin="round"/>
</g>
<path d="M43.1842 1.58416H44.6012V9.75512C44.6012 11.4482 44.1411 12.7732 43.2762 13.7118C42.3928 14.6503 41.1414 15.1288 39.5404 15.1288C37.9577 15.1288 36.7063 14.6503 35.8413 13.6934C34.958 12.7364 34.5163 11.4666 34.5163 9.84714V1.58416H35.915V9.77353C35.915 11.1906 36.3198 12.2763 36.9823 12.8836C37.6633 13.5094 38.5282 13.8038 39.614 13.8038C40.755 13.8038 41.6383 13.4725 42.264 12.7732C42.8713 12.0739 43.1842 11.117 43.1842 9.84714V1.58416ZM53.8293 12.4052C53.8293 13.2149 53.5165 13.8774 52.8908 14.3743C52.2651 14.8896 51.4922 15.1472 50.5904 15.1472C49.1182 15.1472 48.1612 14.5399 47.6643 13.8222C47.2963 13.3253 47.1674 12.8836 47.1122 12.4236L48.3268 12.1107C48.4741 12.9573 49.1182 13.9878 50.572 13.9878C51.0873 13.9878 51.529 13.8406 51.9154 13.5646C52.2835 13.3069 52.4675 12.9389 52.4675 12.4788C52.4675 12.1107 52.3203 11.8163 52.0258 11.5954C51.7314 11.3562 51.3817 11.209 50.9769 11.117L49.5782 10.8041C48.0692 10.4728 47.2963 9.66311 47.2963 8.4117C47.2963 7.47314 47.7747 6.70021 48.4372 6.29534C49.0814 5.89048 49.7807 5.68804 50.4064 5.68804C51.7866 5.70645 52.67 6.24014 53.1484 6.90265C53.4797 7.36272 53.6269 7.74919 53.7005 8.13565L52.4859 8.48531C52.3939 8.11725 52.2467 7.8228 51.9522 7.45474C51.6394 7.08668 51.0873 6.86584 50.4064 6.86584C49.9095 6.86584 49.5046 6.99466 49.155 7.28911C48.8053 7.56516 48.6397 7.91482 48.6397 8.31968C48.6397 9.0374 49.155 9.36866 49.9647 9.57109L51.4369 9.90235C52.6331 10.1784 53.8293 10.9329 53.8293 12.4052ZM64.2829 10.8409H56.8848C56.94 11.7427 57.2713 12.4788 57.897 13.0677C58.5227 13.675 59.2772 13.9694 60.1606 13.9694C61.5408 13.9694 62.5714 13.2885 62.9947 12.0187L64.1725 12.3868C63.9148 13.2517 63.4179 13.9326 62.6818 14.4295C61.9457 14.908 61.1175 15.1656 60.179 15.1656C59.314 15.1656 58.5227 14.9448 57.805 14.5215C57.0873 14.0982 56.5352 13.5278 56.1487 12.7916C55.7438 12.0739 55.5414 11.2826 55.5414 10.4176C55.5414 9.5895 55.7254 8.81657 56.1119 8.09885C56.48 7.36272 57.0137 6.79223 57.713 6.35055C58.3939 5.90888 59.1668 5.68804 59.995 5.68804C60.8967 5.68804 61.688 5.89048 62.3505 6.31375C63.0131 6.71862 63.5099 7.28911 63.8228 7.98843C64.154 8.68774 64.3013 9.47908 64.3013 10.3992C64.3013 10.4912 64.3013 10.6385 64.2829 10.8409ZM56.9032 9.69991H62.9578C62.8658 8.85337 62.553 8.17246 62.0377 7.63877C61.5224 7.12348 60.8415 6.86584 59.995 6.86584C59.2036 6.86584 58.5411 7.14189 57.9522 7.69398C57.3633 8.26447 57.0137 8.92698 56.9032 9.69991ZM66.6096 5.85367H67.9162V7.65717C68.3579 6.75542 69.094 6.14812 69.7933 5.89048C70.143 5.76166 70.511 5.70645 70.8791 5.70645C71.0815 5.70645 71.2287 5.70645 71.3208 5.74325V7.16029C71.1735 7.12348 70.9895 7.12348 70.8055 7.12348C68.6339 7.12348 67.953 8.90858 67.953 10.5281V15H66.6096V5.85367ZM81.0471 15H79.7036V9.68151C79.7036 8.83497 79.5012 8.17246 79.0595 7.65717C78.6363 7.16029 78.0106 6.90265 77.1824 6.90265C76.3911 6.90265 75.7286 7.17869 75.2133 7.73078C74.7164 8.28288 74.4588 8.96379 74.4588 9.79193V15H73.1153V5.85367H74.422V7.52835C75.1581 6.29534 76.2071 5.68804 77.5873 5.68804C78.6731 5.68804 79.5196 6.0193 80.1453 6.68181C80.7342 7.36272 81.0471 8.24607 81.0471 9.35026V15ZM86.9336 9.71832H89.4732V9.11102C89.4732 7.63877 88.6635 6.88424 87.136 6.88424C86.3999 6.88424 85.7742 7.12348 85.4062 7.49154C85.0381 7.85961 84.8173 8.28288 84.7436 8.74295L83.4554 8.46691C83.4738 8.00683 83.9155 7.10508 84.7436 6.44257C85.2957 6.0193 86.1791 5.68804 87.1728 5.68804C88.8475 5.68804 89.9517 6.31375 90.5038 7.58356C90.6878 8.00683 90.7799 8.50371 90.7799 9.09261V11.669C90.7799 13.1965 90.8351 14.3191 90.9271 15H89.6021C89.5284 14.5951 89.4732 14.0614 89.4732 13.3989C88.7003 14.5767 87.6881 15.1656 86.3815 15.1656C85.4798 15.1656 84.7252 14.908 84.1731 14.3927C83.6027 13.8958 83.3082 13.2517 83.3082 12.4604V12.3684C83.3082 10.3808 85.2957 9.71832 86.9336 9.71832ZM89.4732 11.1354V10.8225H86.9152C86.3815 10.8225 85.8846 10.9145 85.4246 11.1354C84.9645 11.3378 84.6516 11.7795 84.6516 12.35C84.6516 12.8652 84.8357 13.2517 85.2221 13.5462C85.5902 13.8406 86.0503 13.9878 86.6208 13.9878C87.4305 13.9878 88.1114 13.7118 88.6635 13.1781C89.1972 12.6628 89.4732 11.9635 89.4732 11.1354ZM101.238 15H99.9316V9.6263C99.9316 8.83497 99.7292 8.17246 99.3427 7.65717C98.9379 7.16029 98.349 6.90265 97.576 6.90265C96.8031 6.90265 96.1774 7.17869 95.7173 7.74919C95.2573 8.31968 95.0364 9.0006 95.0364 9.79193V15H93.693V5.85367H94.9996V7.43634C95.7909 6.25854 96.6559 5.68804 97.9625 5.68804C99.2875 5.68804 100.337 6.33215 100.889 7.52835C101.662 6.29534 102.747 5.68804 104.109 5.68804C105.177 5.68804 106.005 6.0193 106.612 6.70021C107.182 7.36272 107.477 8.24607 107.477 9.35026V15H106.152V9.68151C106.152 8.85337 105.968 8.19086 105.563 7.67558C105.177 7.17869 104.588 6.90265 103.778 6.90265C103.005 6.90265 102.398 7.17869 101.938 7.73078C101.477 8.26447 101.238 8.94539 101.238 9.73672V15ZM118.468 10.8409H111.07C111.125 11.7427 111.456 12.4788 112.082 13.0677C112.708 13.675 113.462 13.9694 114.345 13.9694C115.726 13.9694 116.756 13.2885 117.179 12.0187L118.357 12.3868C118.1 13.2517 117.603 13.9326 116.867 14.4295C116.131 14.908 115.302 15.1656 114.364 15.1656C113.499 15.1656 112.708 14.9448 111.99 14.5215C111.272 14.0982 110.72 13.5278 110.334 12.7916C109.929 12.0739 109.726 11.2826 109.726 10.4176C109.726 9.5895 109.91 8.81657 110.297 8.09885C110.665 7.36272 111.198 6.79223 111.898 6.35055C112.579 5.90888 113.352 5.68804 114.18 5.68804C115.082 5.68804 115.873 5.89048 116.535 6.31375C117.198 6.71862 117.695 7.28911 118.008 7.98843C118.339 8.68774 118.486 9.47908 118.486 10.3992C118.486 10.4912 118.486 10.6385 118.468 10.8409ZM111.088 9.69991H117.143C117.051 8.85337 116.738 8.17246 116.223 7.63877C115.707 7.12348 115.026 6.86584 114.18 6.86584C113.388 6.86584 112.726 7.14189 112.137 7.69398C111.548 8.26447 111.198 8.92698 111.088 9.69991Z" fill="#1F4283" fill-opacity="0.63"/>
</svg>
