<svg width="64" height="64" viewBox="0 0 64 64" fill="none" xmlns="http://www.w3.org/2000/svg">
<circle cx="32" cy="32" r="32" fill="#94ACE8"/>
<path d="M24.5 24.8115C24.5 24.8115 24.6125 22.2333 27.1203 20.1662C28.6094 18.9388 30.3977 18.5833 32 18.5615C33.4633 18.5435 34.7711 18.7912 35.5531 19.1724C36.8898 19.8271 39.5 21.4208 39.5 24.8115C39.5 28.3794 37.2203 29.9966 34.6289 31.7787C32.0375 33.5607 31.375 35.3083 31.375 37.3115" stroke="white" stroke-width="3.125" stroke-miterlimit="10" stroke-linecap="round"/>
<path d="M31.375 45.748C32.7557 45.748 33.875 44.6288 33.875 43.248C33.875 41.8673 32.7557 40.748 31.375 40.748C29.9943 40.748 28.875 41.8673 28.875 43.248C28.875 44.6288 29.9943 45.748 31.375 45.748Z" fill="white"/>
</svg>
