<svg width="506" height="71" viewBox="0 0 506 71" fill="none" xmlns="http://www.w3.org/2000/svg">
<path d="M165.5 9.20117H494.305C499.951 9.20117 504.529 13.7786 504.529 19.4251V59.2984C504.529 64.945 499.951 69.5224 494.305 69.5224H11.2239C5.57741 69.5224 1 64.9449 1 59.2984V19.4251C1 13.7786 5.57741 9.20117 11.2239 9.20117H25.5068" stroke="#6981AC" stroke-width="1.5" stroke-linecap="round"/>
<path d="M45.5761 15.1288C44.3063 15.1288 43.0917 14.6503 42.3004 13.951C41.4722 13.2333 40.9386 12.2763 40.8281 11.3378L42.1532 10.9697C42.3004 11.7611 42.7053 12.4236 43.3678 12.9757C44.0119 13.5278 44.748 13.8038 45.5761 13.8038C46.3491 13.8038 47.0668 13.6198 47.6373 13.2149C48.2078 12.8284 48.5758 12.1659 48.5758 11.3562C48.5758 10.4176 48.079 9.81033 47.4532 9.44227C47.0116 9.18463 46.6251 9.07421 46.1834 8.98219L44.4167 8.63254C44.0487 8.55892 43.6622 8.4301 43.2389 8.24607C42.8157 8.04364 42.4476 7.8044 42.1348 7.49154C41.5091 6.88424 41.1962 6.11131 41.1962 5.17276C41.1962 4.43663 41.3986 3.77412 41.8035 3.20363C42.2084 2.61473 42.7237 2.19146 43.3678 1.87861C44.0119 1.58416 44.6928 1.43693 45.4473 1.43693C48.3366 1.43693 49.6064 3.22203 49.8825 4.65747L48.5942 5.06234C48.3734 4.10538 47.5085 2.74355 45.4289 2.74355C43.9935 2.70674 42.5948 3.71891 42.6132 5.11755C42.6132 6.14812 43.2573 6.97626 44.564 7.2339L46.257 7.56516C47.398 7.78599 48.2814 8.17246 48.8703 8.74295C49.2752 9.11102 49.5696 9.53429 49.7536 9.97596C49.9377 10.436 50.0297 10.8409 50.0297 11.209C50.0481 13.5646 48.0605 15.184 45.5761 15.1288ZM55.6919 15.0736C53.7044 15.0736 53.0971 13.9694 53.0971 12.626V7.03147H51.404V5.85367H53.0971V3.22203H54.4221V5.85367H56.7409V7.03147H54.4221V12.6076C54.4221 13.4541 54.919 13.8958 55.9128 13.8958C56.2256 13.8958 56.5017 13.859 56.7409 13.8222V14.9264C56.4465 15.0184 56.0968 15.0736 55.6919 15.0736ZM58.9956 5.85367H60.3022V7.65717C60.7439 6.75542 61.48 6.14812 62.1793 5.89048C62.529 5.76166 62.897 5.70645 63.2651 5.70645C63.4675 5.70645 63.6147 5.70645 63.7068 5.74325V7.16029C63.5595 7.12348 63.3755 7.12348 63.1915 7.12348C61.0199 7.12348 60.339 8.90858 60.339 10.5281V15H58.9956V5.85367ZM72.8794 10.8409H65.4814C65.5366 11.7427 65.8678 12.4788 66.4935 13.0677C67.1192 13.675 67.8738 13.9694 68.7571 13.9694C70.1373 13.9694 71.1679 13.2885 71.5912 12.0187L72.769 12.3868C72.5113 13.2517 72.0145 13.9326 71.2783 14.4295C70.5422 14.908 69.7141 15.1656 68.7755 15.1656C67.9106 15.1656 67.1192 14.9448 66.4015 14.5215C65.6838 14.0982 65.1317 13.5278 64.7452 12.7916C64.3404 12.0739 64.1379 11.2826 64.1379 10.4176C64.1379 9.5895 64.322 8.81657 64.7084 8.09885C65.0765 7.36272 65.6102 6.79223 66.3095 6.35055C66.9904 5.90888 67.7633 5.68804 68.5915 5.68804C69.4932 5.68804 70.2846 5.89048 70.9471 6.31375C71.6096 6.71862 72.1065 7.28911 72.4193 7.98843C72.7506 8.68774 72.8978 9.47908 72.8978 10.3992C72.8978 10.4912 72.8978 10.6385 72.8794 10.8409ZM65.4998 9.69991H71.5544C71.4624 8.85337 71.1495 8.17246 70.6342 7.63877C70.1189 7.12348 69.438 6.86584 68.5915 6.86584C67.8001 6.86584 67.1376 7.14189 66.5487 7.69398C65.9598 8.26447 65.6102 8.92698 65.4998 9.69991ZM83.285 10.8409H75.887C75.9422 11.7427 76.2735 12.4788 76.8992 13.0677C77.5249 13.675 78.2794 13.9694 79.1628 13.9694C80.543 13.9694 81.5736 13.2885 81.9968 12.0187L83.1746 12.3868C82.917 13.2517 82.4201 13.9326 81.684 14.4295C80.9478 14.908 80.1197 15.1656 79.1812 15.1656C78.3162 15.1656 77.5249 14.9448 76.8072 14.5215C76.0894 14.0982 75.5373 13.5278 75.1509 12.7916C74.746 12.0739 74.5436 11.2826 74.5436 10.4176C74.5436 9.5895 74.7276 8.81657 75.1141 8.09885C75.4821 7.36272 76.0158 6.79223 76.7151 6.35055C77.3961 5.90888 78.169 5.68804 78.9971 5.68804C79.8989 5.68804 80.6902 5.89048 81.3527 6.31375C82.0152 6.71862 82.5121 7.28911 82.825 7.98843C83.1562 8.68774 83.3034 9.47908 83.3034 10.3992C83.3034 10.4912 83.3034 10.6385 83.285 10.8409ZM75.9054 9.69991H81.96C81.868 8.85337 81.5552 8.17246 81.0399 7.63877C80.5246 7.12348 79.8437 6.86584 78.9971 6.86584C78.2058 6.86584 77.5433 7.14189 76.9544 7.69398C76.3655 8.26447 76.0158 8.92698 75.9054 9.69991ZM88.4544 15.0736C86.4669 15.0736 85.8596 13.9694 85.8596 12.626V7.03147H84.1665V5.85367H85.8596V3.22203H87.1846V5.85367H89.5034V7.03147H87.1846V12.6076C87.1846 13.4541 87.6815 13.8958 88.6753 13.8958C88.9881 13.8958 89.2642 13.859 89.5034 13.8222V14.9264C89.209 15.0184 88.8593 15.0736 88.4544 15.0736ZM99.5199 9.71832H102.059V9.11102C102.059 7.63877 101.25 6.88424 99.7223 6.88424C98.9862 6.88424 98.3605 7.12348 97.9924 7.49154C97.6243 7.85961 97.4035 8.28288 97.3299 8.74295L96.0417 8.46691C96.0601 8.00683 96.5018 7.10508 97.3299 6.44257C97.882 6.0193 98.7653 5.68804 99.7591 5.68804C101.434 5.68804 102.538 6.31375 103.09 7.58356C103.274 8.00683 103.366 8.50371 103.366 9.09261V11.669C103.366 13.1965 103.421 14.3191 103.513 15H102.188C102.115 14.5951 102.059 14.0614 102.059 13.3989C101.287 14.5767 100.274 15.1656 98.9678 15.1656C98.066 15.1656 97.3115 14.908 96.7594 14.3927C96.1889 13.8958 95.8945 13.2517 95.8945 12.4604V12.3684C95.8945 10.3808 97.882 9.71832 99.5199 9.71832ZM102.059 11.1354V10.8225H99.5015C98.9678 10.8225 98.4709 10.9145 98.0108 11.1354C97.5507 11.3378 97.2379 11.7795 97.2379 12.35C97.2379 12.8652 97.4219 13.2517 97.8084 13.5462C98.1764 13.8406 98.6365 13.9878 99.207 13.9878C100.017 13.9878 100.698 13.7118 101.25 13.1781C101.783 12.6628 102.059 11.9635 102.059 11.1354ZM105.617 10.4176C105.617 9.22143 106.058 8.04364 106.795 7.16029C107.531 6.25854 108.653 5.68804 109.905 5.68804C110.751 5.68804 111.506 5.92728 112.076 6.33215C112.647 6.73702 113.052 7.17869 113.456 7.76759V1.05047H114.781V15H113.475V13.0493C112.628 14.4479 111.432 15.1288 109.905 15.1288C108.635 15.1288 107.512 14.5767 106.776 13.7118C106.058 12.8468 105.617 11.669 105.617 10.4176ZM110.181 13.9694C112.058 13.9878 113.512 12.2395 113.475 10.3992C113.475 9.20303 112.886 8.06204 111.874 7.38113C111.359 7.04987 110.788 6.88424 110.181 6.88424C109.205 6.88424 108.432 7.2155 107.862 7.89641C107.273 8.57733 106.979 9.42387 106.979 10.4544C106.979 11.7243 107.494 12.81 108.469 13.4725C108.966 13.8038 109.537 13.9694 110.181 13.9694ZM117.137 10.4176C117.137 9.22143 117.578 8.04364 118.314 7.16029C119.051 6.25854 120.173 5.68804 121.425 5.68804C122.271 5.68804 123.026 5.92728 123.596 6.33215C124.167 6.73702 124.571 7.17869 124.976 7.76759V1.05047H126.301V15H124.995V13.0493C124.148 14.4479 122.952 15.1288 121.425 15.1288C120.155 15.1288 119.032 14.5767 118.296 13.7118C117.578 12.8468 117.137 11.669 117.137 10.4176ZM121.701 13.9694C123.578 13.9878 125.032 12.2395 124.995 10.3992C124.995 9.20303 124.406 8.06204 123.394 7.38113C122.878 7.04987 122.308 6.88424 121.701 6.88424C120.725 6.88424 119.952 7.2155 119.382 7.89641C118.793 8.57733 118.498 9.42387 118.498 10.4544C118.498 11.7243 119.014 12.81 119.989 13.4725C120.486 13.8038 121.056 13.9694 121.701 13.9694ZM129.319 5.85367H130.626V7.65717C131.067 6.75542 131.803 6.14812 132.503 5.89048C132.852 5.76166 133.22 5.70645 133.589 5.70645C133.791 5.70645 133.938 5.70645 134.03 5.74325V7.16029C133.883 7.12348 133.699 7.12348 133.515 7.12348C131.343 7.12348 130.662 8.90858 130.662 10.5281V15H129.319V5.85367ZM143.203 10.8409H135.805C135.86 11.7427 136.191 12.4788 136.817 13.0677C137.443 13.675 138.197 13.9694 139.081 13.9694C140.461 13.9694 141.491 13.2885 141.915 12.0187L143.092 12.3868C142.835 13.2517 142.338 13.9326 141.602 14.4295C140.866 14.908 140.038 15.1656 139.099 15.1656C138.234 15.1656 137.443 14.9448 136.725 14.5215C136.007 14.0982 135.455 13.5278 135.069 12.7916C134.664 12.0739 134.461 11.2826 134.461 10.4176C134.461 9.5895 134.645 8.81657 135.032 8.09885C135.4 7.36272 135.934 6.79223 136.633 6.35055C137.314 5.90888 138.087 5.68804 138.915 5.68804C139.817 5.68804 140.608 5.89048 141.271 6.31375C141.933 6.71862 142.43 7.28911 142.743 7.98843C143.074 8.68774 143.221 9.47908 143.221 10.3992C143.221 10.4912 143.221 10.6385 143.203 10.8409ZM135.823 9.69991H141.878C141.786 8.85337 141.473 8.17246 140.958 7.63877C140.442 7.12348 139.761 6.86584 138.915 6.86584C138.124 6.86584 137.461 7.14189 136.872 7.69398C136.283 8.26447 135.934 8.92698 135.823 9.69991ZM151.566 12.4052C151.566 13.2149 151.253 13.8774 150.627 14.3743C150.002 14.8896 149.229 15.1472 148.327 15.1472C146.855 15.1472 145.898 14.5399 145.401 13.8222C145.033 13.3253 144.904 12.8836 144.849 12.4236L146.063 12.1107C146.21 12.9573 146.855 13.9878 148.308 13.9878C148.824 13.9878 149.265 13.8406 149.652 13.5646C150.02 13.3069 150.204 12.9389 150.204 12.4788C150.204 12.1107 150.057 11.8163 149.762 11.5954C149.468 11.3562 149.118 11.209 148.713 11.117L147.315 10.8041C145.806 10.4728 145.033 9.66311 145.033 8.4117C145.033 7.47314 145.511 6.70021 146.174 6.29534C146.818 5.89048 147.517 5.68804 148.143 5.68804C149.523 5.70645 150.406 6.24014 150.885 6.90265C151.216 7.36272 151.363 7.74919 151.437 8.13565L150.222 8.48531C150.13 8.11725 149.983 7.8228 149.689 7.45474C149.376 7.08668 148.824 6.86584 148.143 6.86584C147.646 6.86584 147.241 6.99466 146.891 7.28911C146.542 7.56516 146.376 7.91482 146.376 8.31968C146.376 9.0374 146.891 9.36866 147.701 9.57109L149.173 9.90235C150.37 10.1784 151.566 10.9329 151.566 12.4052ZM159.977 12.4052C159.977 13.2149 159.664 13.8774 159.038 14.3743C158.412 14.8896 157.639 15.1472 156.738 15.1472C155.265 15.1472 154.308 14.5399 153.812 13.8222C153.443 13.3253 153.315 12.8836 153.259 12.4236L154.474 12.1107C154.621 12.9573 155.265 13.9878 156.719 13.9878C157.234 13.9878 157.676 13.8406 158.063 13.5646C158.431 13.3069 158.615 12.9389 158.615 12.4788C158.615 12.1107 158.467 11.8163 158.173 11.5954C157.879 11.3562 157.529 11.209 157.124 11.117L155.725 10.8041C154.216 10.4728 153.443 9.66311 153.443 8.4117C153.443 7.47314 153.922 6.70021 154.584 6.29534C155.229 5.89048 155.928 5.68804 156.554 5.68804C157.934 5.70645 158.817 6.24014 159.296 6.90265C159.627 7.36272 159.774 7.74919 159.848 8.13565L158.633 8.48531C158.541 8.11725 158.394 7.8228 158.099 7.45474C157.787 7.08668 157.234 6.86584 156.554 6.86584C156.057 6.86584 155.652 6.99466 155.302 7.28911C154.953 7.56516 154.787 7.91482 154.787 8.31968C154.787 9.0374 155.302 9.36866 156.112 9.57109L157.584 9.90235C158.78 10.1784 159.977 10.9329 159.977 12.4052Z" fill="#1F4283" fill-opacity="0.63"/>
</svg>
