<svg width="506" height="71" viewBox="0 0 506 71" fill="none" xmlns="http://www.w3.org/2000/svg">
<path d="M86.5 9.20117H494.305C499.951 9.20117 504.529 13.7786 504.529 19.4251V59.2984C504.529 64.945 499.951 69.5224 494.305 69.5224H11.2239C5.57741 69.5224 1 64.9449 1 59.2984V19.4251C1 13.7786 5.57741 9.20117 11.2239 9.20117H25.5068" stroke="#6981AC" stroke-width="1.5" stroke-linecap="round"/>
<path d="M47.6189 15.1472C45.7786 15.1472 44.0671 14.4295 42.8709 13.2517C42.282 12.6628 41.8035 11.9451 41.4538 11.0985C41.1042 10.2336 40.9202 9.31345 40.9202 8.33809C40.9202 7.34432 41.1042 6.40576 41.4722 5.54082C41.8403 4.67587 42.3188 3.93975 42.9261 3.35085C44.1591 2.15465 45.8706 1.43693 47.6741 1.43693C49.0911 1.43693 50.3793 1.8602 51.2443 2.4675C51.686 2.76195 52.0724 3.11161 52.4221 3.49808C53.103 4.28941 53.4711 5.08074 53.6735 5.85367L52.3301 6.33215C52.2196 5.89048 52.0356 5.412 51.5387 4.71268C51.2811 4.36302 51.005 4.05017 50.6738 3.77412C50.3425 3.49808 49.9193 3.25884 49.3856 3.07481C48.8519 2.87237 48.2814 2.78036 47.6373 2.78036C46.2386 2.78036 44.8952 3.35085 43.9567 4.28941C42.9997 5.24637 42.3924 6.66341 42.3924 8.24607C42.3924 9.29505 42.6132 10.252 43.0733 11.0985C43.515 11.9451 44.1407 12.6076 44.9688 13.0861C45.7602 13.5646 46.6619 13.8038 47.6557 13.8038C48.8887 13.8038 49.9561 13.3805 50.6002 12.8652C50.9314 12.6076 51.2259 12.3132 51.4835 11.9451C51.7412 11.5954 51.9252 11.2826 52.054 11.0249C52.1644 10.7673 52.2749 10.4912 52.3669 10.2152L53.7103 10.6937C53.5079 11.4114 53.1582 12.1475 52.4773 12.9757C52.146 13.3805 51.7412 13.7486 51.3179 14.0614C50.4345 14.6871 49.0911 15.1472 47.6189 15.1472ZM55.8496 3.29564C55.6656 3.09321 55.5552 2.85397 55.5552 2.57792C55.5552 2.30188 55.6656 2.06264 55.8496 1.8602C56.0337 1.67617 56.2913 1.56575 56.5674 1.56575C56.8434 1.56575 57.0827 1.67617 57.2667 1.8602C57.4691 2.06264 57.5611 2.30188 57.5611 2.57792C57.5611 2.85397 57.4691 3.09321 57.2667 3.29564C57.0827 3.47967 56.8434 3.59009 56.5674 3.59009C56.2913 3.59009 56.0337 3.47967 55.8496 3.29564ZM55.8865 15V5.85367H57.2299V15H55.8865ZM63.4557 15.0736C61.4682 15.0736 60.8609 13.9694 60.8609 12.626V7.03147H59.1678V5.85367H60.8609V3.22203H62.1859V5.85367H64.5047V7.03147H62.1859V12.6076C62.1859 13.4541 62.6828 13.8958 63.6766 13.8958C63.9894 13.8958 64.2655 13.859 64.5047 13.8222V14.9264C64.2103 15.0184 63.8606 15.0736 63.4557 15.0736ZM68.8573 19.5088H67.4035L69.7775 14.3743L65.6184 5.85367H67.1458L70.4952 12.9205L73.6789 5.85367H75.1144L68.8573 19.5088Z" fill="#1F4283" fill-opacity="0.63"/>
</svg>
