<svg width="506" height="71" viewBox="0 0 506 71" fill="none" xmlns="http://www.w3.org/2000/svg">
<path d="M123.5 9.20117H494.305C499.951 9.20117 504.529 13.7786 504.529 19.4251V59.2984C504.529 64.945 499.951 69.5224 494.305 69.5224H11.2239C5.57741 69.5224 1 64.9449 1 59.2984V19.4251C1 13.7786 5.57741 9.20117 11.2239 9.20117H25.5068" stroke="#6981AC" stroke-width="1.5" stroke-linecap="round"/>
<path d="M47.6189 15.1472C45.7786 15.1472 44.0671 14.4295 42.8709 13.2517C42.282 12.6628 41.8035 11.9451 41.4538 11.0985C41.1042 10.2336 40.9202 9.31345 40.9202 8.33809C40.9202 7.34432 41.1042 6.40576 41.4722 5.54082C41.8403 4.67587 42.3188 3.93975 42.9261 3.35085C44.1591 2.15465 45.8706 1.43693 47.6741 1.43693C49.0911 1.43693 50.3793 1.8602 51.2443 2.4675C51.686 2.76195 52.0724 3.11161 52.4221 3.49808C53.103 4.28941 53.4711 5.08074 53.6735 5.85367L52.3301 6.33215C52.2196 5.89048 52.0356 5.412 51.5387 4.71268C51.2811 4.36302 51.005 4.05017 50.6738 3.77412C50.3425 3.49808 49.9193 3.25884 49.3856 3.07481C48.8519 2.87237 48.2814 2.78036 47.6373 2.78036C46.2386 2.78036 44.8952 3.35085 43.9567 4.28941C42.9997 5.24637 42.3924 6.66341 42.3924 8.24607C42.3924 9.29505 42.6132 10.252 43.0733 11.0985C43.515 11.9451 44.1407 12.6076 44.9688 13.0861C45.7602 13.5646 46.6619 13.8038 47.6557 13.8038C48.8887 13.8038 49.9561 13.3805 50.6002 12.8652C50.9314 12.6076 51.2259 12.3132 51.4835 11.9451C51.7412 11.5954 51.9252 11.2826 52.054 11.0249C52.1644 10.7673 52.2749 10.4912 52.3669 10.2152L53.7103 10.6937C53.5079 11.4114 53.1582 12.1475 52.4773 12.9757C52.146 13.3805 51.7412 13.7486 51.3179 14.0614C50.4345 14.6871 49.0911 15.1472 47.6189 15.1472ZM59.9167 15.1656C59.0702 15.1656 58.2605 14.9448 57.5427 14.5399C56.825 14.1167 56.2545 13.5462 55.8496 12.8284C55.4264 12.1107 55.2239 11.3194 55.2239 10.4544C55.2239 9.11102 55.6656 7.97002 56.5858 7.06827C57.4875 6.14812 58.6101 5.68804 59.9535 5.68804C62.5484 5.63283 64.7199 7.8228 64.6831 10.3992C64.7199 13.0493 62.5484 15.2208 59.9167 15.1656ZM59.9535 13.9694C60.9105 13.9694 61.7202 13.6198 62.3643 12.9389C62.99 12.2579 63.3029 11.4298 63.3029 10.4544C63.3029 9.47908 62.99 8.63254 62.3459 7.91482C61.7018 7.2155 60.9105 6.86584 59.9167 6.86584C58.9598 6.86584 58.15 7.2155 57.5243 7.89641C56.8986 8.57733 56.5858 9.40546 56.5858 10.3992C56.549 12.2947 58.0028 14.0062 59.9535 13.9694ZM66.9185 5.85367H68.2435V11.1722C68.2435 12.0187 68.4644 12.6996 68.9061 13.1965C69.3293 13.7118 69.955 13.951 70.7832 13.951C71.5745 13.951 72.2186 13.675 72.7339 13.1229C73.2492 12.5708 73.5068 11.8899 73.5068 11.0617V5.85367H74.8318V15H73.5252V13.3253C72.7891 14.5583 71.7585 15.184 70.3783 15.184C69.2925 15.184 68.446 14.8344 67.8203 14.1719C67.213 13.4909 66.9185 12.6076 66.9185 11.5034V5.85367ZM85.7797 15H84.4362V9.68151C84.4362 8.83497 84.2338 8.17246 83.7921 7.65717C83.3689 7.16029 82.7432 6.90265 81.915 6.90265C81.1237 6.90265 80.4612 7.17869 79.9459 7.73078C79.449 8.28288 79.1914 8.96379 79.1914 9.79193V15H77.8479V5.85367H79.1546V7.52835C79.8907 6.29534 80.9397 5.68804 82.3199 5.68804C83.4057 5.68804 84.2522 6.0193 84.8779 6.68181C85.4668 7.36272 85.7797 8.24607 85.7797 9.35026V15ZM91.6894 15.0736C89.7018 15.0736 89.0945 13.9694 89.0945 12.626V7.03147H87.4014V5.85367H89.0945V3.22203H90.4195V5.85367H92.7383V7.03147H90.4195V12.6076C90.4195 13.4541 90.9164 13.8958 91.9102 13.8958C92.223 13.8958 92.4991 13.859 92.7383 13.8222V14.9264C92.4439 15.0184 92.0942 15.0736 91.6894 15.0736ZM94.993 5.85367H96.2996V7.65717C96.7413 6.75542 97.4774 6.14812 98.1767 5.89048C98.5264 5.76166 98.8944 5.70645 99.2625 5.70645C99.4649 5.70645 99.6122 5.70645 99.7042 5.74325V7.16029C99.557 7.12348 99.3729 7.12348 99.1889 7.12348C97.0173 7.12348 96.3364 8.90858 96.3364 10.5281V15H94.993V5.85367ZM103.597 19.5088H102.143L104.517 14.3743L100.358 5.85367H101.885L105.235 12.9205L108.418 5.85367H109.854L103.597 19.5088Z" fill="#1F4283" fill-opacity="0.63"/>
</svg>
