<svg width="7" height="11" viewBox="0 0 7 11" fill="none" xmlns="http://www.w3.org/2000/svg">
<path d="M5.88185 4.88929L5.88182 4.88932L1.62185 0.968377L1.61848 0.96527L1.61843 0.965323C1.44436 0.814667 1.18025 0.816075 1.00828 0.943642L0.999213 0.950372L0.999491 0.950693C0.814125 1.11112 0.812968 1.37266 0.974171 1.53543L0.979056 1.54036L0.979165 1.54024L5.23914 5.46118L5.24251 5.46428L5.24256 5.46423C5.2496 5.47033 5.25411 5.479 5.25411 5.49163C5.25411 5.50413 5.24929 5.52086 5.23502 5.53684L0.98067 9.4526C0.888192 9.53361 0.843506 9.64385 0.850759 9.75684C0.857885 9.86785 0.913993 9.96954 0.999491 10.0435H0.999492M5.88185 4.88929L0.999491 10.0435L1.09715 9.93069L0.999492 10.0435M5.88185 4.88929L5.88421 4.89156C6.06559 5.06598 6.15 5.28051 6.15 5.49711C6.15 5.72231 6.04182 5.93485 5.86731 6.10267L5.86733 6.10269L5.86514 6.10471L1.62207 10.0257L1.62212 10.0257L1.61843 10.0289C1.45362 10.1715 1.18352 10.2028 0.999492 10.0435M5.88185 4.88929L0.999492 10.0435" fill="#7A8FB7" stroke="#7A8FB7" stroke-width="0.3"/>
</svg>
