<svg width="58" height="58" viewBox="0 0 58 58" fill="none" xmlns="http://www.w3.org/2000/svg">
<g filter="url(#filter0_b_2929_5769)">
<path d="M29 0C12.9843 0 0 12.9843 0 29C0 45.0157 12.9843 58 29 58C45.0157 58 58 45.0157 58 29C58 12.9843 45.0157 0 29 0Z" fill="white" fill-opacity="0.15"/>
</g>
<path d="M18.1402 17C18.9423 17 19.5703 17.2538 20.0266 17.7591C20.483 18.2645 20.7276 18.902 20.7605 19.6659C20.7605 20.4203 20.5041 21.0567 19.9878 21.5738C19.4715 22.0897 18.7659 22.3483 17.8732 22.3483H17.8414C16.97 22.3483 16.2796 22.0897 15.7656 21.5738C15.2576 21.0567 15 20.4203 15 19.6659C15 18.8902 15.2799 18.2527 15.8444 17.7509C16.409 17.2503 17.1758 17 18.1402 17ZM15.3375 24.4664H20.8452V39.9988H15.3375V24.4664ZM40.76 31.0933V39.9988H35.2535V31.6919C35.2535 30.6352 35.0371 29.7887 34.6067 29.144C34.1786 28.5053 33.4623 28.1854 32.4509 28.1854C31.6806 28.1854 31.0619 28.3813 30.6009 28.7757C30.1387 29.1677 29.8035 29.6009 29.6012 30.0767C29.5354 30.2491 29.4942 30.4392 29.4718 30.6505C29.4507 30.8583 29.4413 31.0838 29.4413 31.3211V40H23.9007C23.9242 37.3719 23.9371 34.961 23.9371 32.7745V30.013V27.5041C23.9371 26.7403 23.9289 26.0885 23.916 25.5478C23.9089 25.0118 23.9007 24.6494 23.9007 24.4664H29.4413V26.6659L29.4107 26.7296H29.4413V26.6659C29.613 26.3955 29.8329 26.1133 30.1011 25.817C30.3727 25.5218 30.6973 25.2456 31.0925 24.9906C31.4841 24.7379 31.9558 24.5301 32.5085 24.3613C33.0648 24.1948 33.6976 24.1122 34.4185 24.1122C35.3147 24.1122 36.1521 24.2491 36.933 24.5242C37.7116 24.7993 38.3808 25.2302 38.95 25.8182C39.5157 26.4026 39.9591 27.1299 40.2813 27.9988C40.6024 28.8654 40.76 29.8973 40.76 31.0933Z" fill="white"/>
<defs>
<filter id="filter0_b_2929_5769" x="-25" y="-25" width="108" height="108" filterUnits="userSpaceOnUse" color-interpolation-filters="sRGB">
<feFlood flood-opacity="0" result="BackgroundImageFix"/>
<feGaussianBlur in="BackgroundImageFix" stdDeviation="12.5"/>
<feComposite in2="SourceAlpha" operator="in" result="effect1_backgroundBlur_2929_5769"/>
<feBlend mode="normal" in="SourceGraphic" in2="effect1_backgroundBlur_2929_5769" result="shape"/>
</filter>
</defs>
</svg>
