<svg width="24" height="24" viewBox="0 0 24 24" fill="none" xmlns="http://www.w3.org/2000/svg">
<g id="copy-alt 1" clip-path="url(#clip0_3643_12305)">
<path id="Vector" d="M13 4C13 4.26522 13.1054 4.51957 13.2929 4.70711C13.4804 4.89464 13.7348 5 14 5H17.966C17.8924 4.35068 17.6074 3.74354 17.155 3.272L14.871 0.913C14.3714 0.406548 13.7085 0.0933745 13 0.029V4ZM11 4V0H7C5.67441 0.00158786 4.40356 0.528882 3.46622 1.46622C2.52888 2.40356 2.00159 3.67441 2 5V15C2.00159 16.3256 2.52888 17.5964 3.46622 18.5338C4.40356 19.4711 5.67441 19.9984 7 20H13C14.3256 19.9984 15.5964 19.4711 16.5338 18.5338C17.4711 17.5964 17.9984 16.3256 18 15V7H14C13.2044 7 12.4413 6.68393 11.8787 6.12132C11.3161 5.55871 11 4.79565 11 4ZM17 24H8C7.73478 24 7.48043 23.8946 7.29289 23.7071C7.10536 23.5196 7 23.2652 7 23C7 22.7348 7.10536 22.4804 7.29289 22.2929C7.48043 22.1054 7.73478 22 8 22H17C17.7957 22 18.5587 21.6839 19.1213 21.1213C19.6839 20.5587 20 19.7956 20 19V8C20 7.73478 20.1054 7.48043 20.2929 7.29289C20.4804 7.10536 20.7348 7 21 7C21.2652 7 21.5196 7.10536 21.7071 7.29289C21.8946 7.48043 22 7.73478 22 8V19C21.9984 20.3256 21.4711 21.5964 20.5338 22.5338C19.5964 23.4711 18.3256 23.9984 17 24Z" fill="#2F467F"/>
</g>
<defs>
<clipPath id="clip0_3643_12305">
<rect width="24" height="24" fill="white"/>
</clipPath>
</defs>
</svg>
