<svg width="21" height="21" viewBox="0 0 21 21" fill="none" xmlns="http://www.w3.org/2000/svg">
<path d="M21 6.68555V5.57812C21 4.30959 19.9717 3.28125 18.7031 3.28125H2.29688C1.02834 3.28125 0 4.30959 0 5.57812V6.68555C0 6.79879 0.091834 6.89062 0.205078 6.89062H20.7949C20.9082 6.89062 21 6.79879 21 6.68555Z" fill="white"/>
<path d="M0 8.4082V15.4219C0 16.6904 1.02834 17.7188 2.29688 17.7188H18.7031C19.9717 17.7188 21 16.6904 21 15.4219V8.4082C21 8.29496 20.9082 8.20312 20.7949 8.20312H0.205078C0.091834 8.20312 0 8.29496 0 8.4082ZM5.25 13.7812C5.25 14.1437 4.95616 14.4375 4.59375 14.4375H3.9375C3.57509 14.4375 3.28125 14.1437 3.28125 13.7812V13.125C3.28125 12.7626 3.57509 12.4688 3.9375 12.4688H4.59375C4.95616 12.4688 5.25 12.7626 5.25 13.125V13.7812Z" fill="white"/>
</svg>
