<svg width="176" height="45" viewBox="0 0 176 45" fill="none" xmlns="http://www.w3.org/2000/svg">
<g filter="url(#filter0_d_2647_3779)">
<rect x="6" y="4" width="164" height="33" rx="16.5" fill="#CEFFC6"/>
</g>
<path d="M69.754 25.126C68.214 25.14 66.674 24.426 65.694 23.18C65.036 22.368 64.63 21.206 64.63 19.932C64.63 19.176 64.77 18.476 65.05 17.804C65.33 17.146 65.708 16.586 66.184 16.124C66.66 15.676 67.22 15.312 67.85 15.046C68.48 14.78 69.138 14.64 69.824 14.64C70.93 14.64 71.938 14.962 72.638 15.41C72.974 15.648 73.282 15.9 73.562 16.208C74.094 16.81 74.388 17.398 74.542 17.986L72.96 18.532C72.89 18.21 72.778 17.888 72.456 17.426C72.288 17.188 72.092 16.978 71.868 16.81C71.434 16.446 70.678 16.152 69.81 16.152C68.9 16.152 68.046 16.53 67.388 17.16C66.744 17.79 66.31 18.77 66.31 19.876C66.31 20.982 66.73 21.976 67.374 22.606C68.018 23.236 68.886 23.614 69.796 23.614C70.594 23.614 71.322 23.334 71.77 22.984C71.994 22.802 72.204 22.606 72.386 22.368C72.736 21.906 72.89 21.542 72.988 21.192L74.57 21.738C74.388 22.382 73.968 23.208 73.17 23.894C72.624 24.356 71.994 24.734 71.14 24.958C70.692 25.07 70.23 25.126 69.754 25.126ZM81.5722 25H80.0602C80.0182 24.804 79.9902 24.496 79.9902 24.048C79.7522 24.44 79.4582 24.706 79.0942 24.874C78.7162 25.042 78.3382 25.126 77.9462 25.126C77.2742 25.126 76.7002 24.93 76.2662 24.538C75.8322 24.16 75.6082 23.67 75.6082 23.068V22.998C75.6222 22.032 76.1962 21.444 76.9522 21.15C77.4842 20.94 77.9882 20.87 78.4922 20.87H79.3602C79.7942 20.87 80.0042 20.674 80.0042 20.282C80.0042 19.988 79.8922 19.736 79.6542 19.526C79.4162 19.33 79.0802 19.218 78.6322 19.218C77.8062 19.218 77.2322 19.68 77.1202 20.38L75.7062 20.058C75.7482 19.736 75.9022 19.386 76.1822 19.008C76.4622 18.644 76.8122 18.364 77.2742 18.168C77.6662 17.986 78.1422 17.902 78.6882 17.902C79.9902 17.902 80.8582 18.378 81.2922 19.33C81.4462 19.666 81.5302 20.072 81.5302 20.562V23.88C81.5302 24.342 81.5442 24.72 81.5722 25ZM79.9902 22.186V21.962H78.4922C78.1562 21.962 77.8622 22.046 77.5822 22.214C77.3022 22.396 77.1622 22.634 77.1622 22.928C77.1622 23.502 77.6102 23.88 78.2682 23.88C78.7862 23.88 79.2202 23.726 79.5282 23.418C79.8362 23.11 79.9902 22.704 79.9902 22.186ZM85.7884 25.126C84.6684 25.112 83.9124 24.678 83.5064 24.146C83.2124 23.768 83.0724 23.432 83.0444 23.096L84.3744 22.746C84.5144 23.39 85.0044 23.852 85.7744 23.852C86.4044 23.852 86.7544 23.53 86.7544 23.04C86.7544 22.662 86.5164 22.41 85.9284 22.27L85.0464 22.06C83.8144 21.78 83.1984 21.01 83.1984 20.072C83.1984 19.47 83.4364 18.966 83.9124 18.532C84.3744 18.112 84.9624 17.888 85.6624 17.888C86.7404 17.902 87.4264 18.308 87.8044 18.812C88.0704 19.162 88.1824 19.456 88.2244 19.75L86.9224 20.114C86.7964 19.582 86.4044 19.148 85.6624 19.148C85.4104 19.148 85.1864 19.218 84.9904 19.372C84.7944 19.512 84.7104 19.708 84.7104 19.932C84.7104 20.324 84.9904 20.576 85.4104 20.66L86.3624 20.856C86.9784 20.996 87.4684 21.248 87.8184 21.626C88.1544 22.004 88.3364 22.452 88.3364 22.956C88.3364 24.02 87.5244 25.126 85.7884 25.126ZM96.3855 21.976H91.0935C91.1215 23.012 92.1295 23.81 93.1375 23.796C94.0335 23.796 94.7195 23.418 94.9855 22.62L96.2875 23.026C96.0355 23.88 95.3355 24.566 94.4955 24.888C94.0615 25.042 93.6275 25.126 93.1515 25.126C91.1495 25.168 89.4695 23.53 89.5115 21.514C89.5115 20.856 89.6655 20.254 89.9595 19.708C90.2675 19.148 90.6735 18.714 91.2195 18.392C91.7515 18.07 92.3535 17.902 93.0115 17.902C94.0755 17.902 94.9015 18.224 95.5035 18.896C96.1055 19.554 96.4135 20.422 96.4135 21.5C96.4135 21.668 96.3995 21.836 96.3855 21.976ZM93.0255 19.232C92.5495 19.232 92.1295 19.372 91.7935 19.666C91.4575 19.946 91.2475 20.324 91.1775 20.8H94.8315C94.8035 20.324 94.6215 19.946 94.2855 19.652C93.9355 19.372 93.5155 19.232 93.0255 19.232ZM105.252 18.014V19.61C105.126 19.582 104.986 19.568 104.818 19.568C103.642 19.568 102.998 20.254 102.998 21.458V25H101.444V18.042H102.97V19.12C103.376 18.378 104.118 17.986 104.874 17.986C105.014 17.986 105.14 18 105.252 18.014ZM112.641 21.976H107.349C107.377 23.012 108.385 23.81 109.393 23.796C110.289 23.796 110.975 23.418 111.241 22.62L112.543 23.026C112.291 23.88 111.591 24.566 110.751 24.888C110.317 25.042 109.883 25.126 109.407 25.126C107.405 25.168 105.725 23.53 105.767 21.514C105.767 20.856 105.921 20.254 106.215 19.708C106.523 19.148 106.929 18.714 107.475 18.392C108.007 18.07 108.609 17.902 109.267 17.902C110.331 17.902 111.157 18.224 111.759 18.896C112.361 19.554 112.669 20.422 112.669 21.5C112.669 21.668 112.655 21.836 112.641 21.976ZM109.281 19.232C108.805 19.232 108.385 19.372 108.049 19.666C107.713 19.946 107.503 20.324 107.433 20.8H111.087C111.059 20.324 110.877 19.946 110.541 19.652C110.191 19.372 109.771 19.232 109.281 19.232ZM119.799 25H118.287C118.245 24.804 118.217 24.496 118.217 24.048C117.979 24.44 117.685 24.706 117.321 24.874C116.943 25.042 116.565 25.126 116.173 25.126C115.501 25.126 114.927 24.93 114.493 24.538C114.059 24.16 113.835 23.67 113.835 23.068V22.998C113.849 22.032 114.423 21.444 115.179 21.15C115.711 20.94 116.215 20.87 116.719 20.87H117.587C118.021 20.87 118.231 20.674 118.231 20.282C118.231 19.988 118.119 19.736 117.881 19.526C117.643 19.33 117.307 19.218 116.859 19.218C116.033 19.218 115.459 19.68 115.347 20.38L113.933 20.058C113.975 19.736 114.129 19.386 114.409 19.008C114.689 18.644 115.039 18.364 115.501 18.168C115.893 17.986 116.369 17.902 116.915 17.902C118.217 17.902 119.085 18.378 119.519 19.33C119.673 19.666 119.757 20.072 119.757 20.562V23.88C119.757 24.342 119.771 24.72 119.799 25ZM118.217 22.186V21.962H116.719C116.383 21.962 116.089 22.046 115.809 22.214C115.529 22.396 115.389 22.634 115.389 22.928C115.389 23.502 115.837 23.88 116.495 23.88C117.013 23.88 117.447 23.726 117.755 23.418C118.063 23.11 118.217 22.704 118.217 22.186ZM121.271 21.514C121.271 20.618 121.607 19.736 122.181 19.05C122.769 18.364 123.693 17.902 124.743 17.902C125.121 17.902 125.527 18 125.961 18.196C126.409 18.378 126.759 18.658 126.997 19.036V14.388H128.551V25H127.025V23.908C126.857 24.188 126.619 24.426 126.311 24.622C125.989 24.804 125.695 24.93 125.429 25C125.163 25.07 124.911 25.112 124.701 25.112C124.057 25.112 123.455 24.93 122.937 24.594C122.405 24.258 121.999 23.81 121.705 23.264C121.425 22.718 121.271 22.13 121.271 21.514ZM127.011 21.514C127.011 20.898 126.829 20.38 126.437 19.946C126.045 19.526 125.541 19.316 124.925 19.316C124.309 19.316 123.819 19.526 123.427 19.946C123.035 20.38 122.839 20.898 122.839 21.514C122.839 22.13 123.035 22.634 123.427 23.068C123.819 23.488 124.309 23.698 124.925 23.698C125.541 23.698 126.045 23.488 126.437 23.068C126.829 22.634 127.011 22.13 127.011 21.514ZM132.888 24.216L129.794 18.042H131.558L133.728 22.606L135.73 18.042H137.41L132.636 28.43H130.984L132.888 24.216Z" fill="#0C5200"/>
<g filter="url(#filter1_d_2647_3779)">
<circle cx="24.5" cy="20.5" r="16.5" fill="#CEFFC6"/>
</g>
<g clip-path="url(#clip0_2647_3779)">
<path d="M32.4678 19.8652C32.4678 21.4937 31.9844 23.0773 31.07 24.4451C30.9457 24.631 30.7415 24.7315 30.5336 24.7315C30.4104 24.7315 30.2859 24.6963 30.1759 24.6227C29.88 24.4249 29.8005 24.0246 29.9983 23.7287C30.7706 22.5737 31.1787 21.2378 31.1787 19.8652C31.1787 19.2755 31.105 18.6897 30.9594 18.1245C30.8707 17.7798 31.0783 17.4284 31.4229 17.3396C31.7679 17.251 32.1191 17.4584 32.2078 17.8031C32.3803 18.4733 32.4678 19.1671 32.4678 19.8652ZM27.8186 25.8238C26.736 26.4795 25.4909 26.8262 24.2178 26.8262C20.3795 26.8262 17.2568 23.7035 17.2568 19.8652C17.2568 16.027 20.3795 12.9043 24.2178 12.9043C25.6389 12.9043 27.0054 13.3295 28.1697 14.1341C28.4625 14.3364 28.8639 14.263 29.0664 13.9702C29.2687 13.6774 29.1954 13.2759 28.9025 13.0735C27.5218 12.1195 25.9019 11.6152 24.2178 11.6152C22.0142 11.6152 19.9423 12.4734 18.3841 14.0316C16.8259 15.5898 15.9678 17.6616 15.9678 19.8652C15.9678 22.0689 16.8259 24.1407 18.3841 25.6989C19.9423 27.2571 22.0142 28.1152 24.2178 28.1152C25.7264 28.1152 27.2025 27.7041 28.4865 26.9263C28.7911 26.7418 28.8884 26.3455 28.7039 26.041C28.5194 25.7365 28.1231 25.6393 27.8186 25.8238ZM24.28 21.7341C24.1779 21.7382 24.0826 21.7019 24.0086 21.6314L20.6329 18.4308C20.3746 18.1858 19.9666 18.1966 19.7218 18.4549C19.4768 18.7133 19.4876 19.1213 19.746 19.3661L23.1209 22.5662C23.4326 22.8626 23.8358 23.0234 24.2631 23.0234C24.286 23.0234 24.3089 23.0229 24.3318 23.0221C24.7844 23.0038 25.2001 22.8079 25.5022 22.4704C25.5099 22.462 25.5172 22.4533 25.5243 22.4444L32.3255 13.9849C32.5486 13.7074 32.5045 13.3017 32.2271 13.0788C31.9498 12.8557 31.5439 12.8998 31.3208 13.1772L24.533 21.6202C24.4663 21.6898 24.3769 21.7302 24.28 21.7341Z" fill="#0C5200"/>
</g>
<defs>
<filter id="filter0_d_2647_3779" x="0.3" y="0.3" width="175.4" height="44.4" filterUnits="userSpaceOnUse" color-interpolation-filters="sRGB">
<feFlood flood-opacity="0" result="BackgroundImageFix"/>
<feColorMatrix in="SourceAlpha" type="matrix" values="0 0 0 0 0 0 0 0 0 0 0 0 0 0 0 0 0 0 127 0" result="hardAlpha"/>
<feOffset dy="2"/>
<feGaussianBlur stdDeviation="2.85"/>
<feComposite in2="hardAlpha" operator="out"/>
<feColorMatrix type="matrix" values="0 0 0 0 0 0 0 0 0 0 0 0 0 0 0 0 0 0 0.15 0"/>
<feBlend mode="normal" in2="BackgroundImageFix" result="effect1_dropShadow_2647_3779"/>
<feBlend mode="normal" in="SourceGraphic" in2="effect1_dropShadow_2647_3779" result="shape"/>
</filter>
<filter id="filter1_d_2647_3779" x="7.2" y="2.7" width="36.6" height="36.6" filterUnits="userSpaceOnUse" color-interpolation-filters="sRGB">
<feFlood flood-opacity="0" result="BackgroundImageFix"/>
<feColorMatrix in="SourceAlpha" type="matrix" values="0 0 0 0 0 0 0 0 0 0 0 0 0 0 0 0 0 0 127 0" result="hardAlpha"/>
<feOffset dx="1" dy="0.5"/>
<feGaussianBlur stdDeviation="0.9"/>
<feComposite in2="hardAlpha" operator="out"/>
<feColorMatrix type="matrix" values="0 0 0 0 0 0 0 0 0 0 0 0 0 0 0 0 0 0 0.2 0"/>
<feBlend mode="normal" in2="BackgroundImageFix" result="effect1_dropShadow_2647_3779"/>
<feBlend mode="normal" in="SourceGraphic" in2="effect1_dropShadow_2647_3779" result="shape"/>
</filter>
<clipPath id="clip0_2647_3779">
<rect width="16.5" height="16.5" fill="white" transform="translate(16 11.6152)"/>
</clipPath>
</defs>
</svg>
