<svg width="506" height="71" viewBox="0 0 506 71" fill="none" xmlns="http://www.w3.org/2000/svg">
<path d="M120.612 9.72412L494.305 9.72412C499.951 9.72412 504.529 14.3015 504.529 19.9481V59.8214C504.529 65.4679 499.951 70.0453 494.305 70.0453H11.2239C5.57741 70.0453 1 65.4679 1 59.8214V19.9481C1 14.3015 5.57741 9.72412 11.2239 9.72412H25.5068" stroke="#6981AC" stroke-width="1.5" stroke-linecap="round"/>
<path d="M38.9515 10.2776H36.099V15.5225H34.682V2.10662H39.1723C42.4481 2.08821 43.8835 4.05734 43.8835 6.13689C43.8835 7.29629 43.4418 8.30845 42.6505 9.06298C41.8407 9.81751 40.5341 10.2776 38.9515 10.2776ZM39.0619 3.43164H36.099V8.97097H38.9883C40.1845 8.97097 41.123 8.62131 41.6567 8.06921C42.1904 7.53553 42.4481 6.87301 42.4481 6.1737C42.4481 4.86708 41.6935 3.43164 39.0619 3.43164ZM48.4561 10.2408H50.9957V9.63348C50.9957 8.16123 50.186 7.4067 48.6585 7.4067C47.9224 7.4067 47.2967 7.64594 46.9286 8.01401C46.5606 8.38207 46.3397 8.80534 46.2661 9.26541L44.9779 8.98937C44.9963 8.52929 45.438 7.62754 46.2661 6.96503C46.8182 6.54176 47.7016 6.2105 48.6953 6.2105C50.37 6.2105 51.4742 6.83621 52.0263 8.10602C52.2103 8.52929 52.3023 9.02617 52.3023 9.61507V12.1915C52.3023 13.719 52.3575 14.8415 52.4495 15.5225H51.1245C51.0509 15.1176 50.9957 14.5839 50.9957 13.9214C50.2228 15.0992 49.2106 15.6881 47.904 15.6881C47.0022 15.6881 46.2477 15.4304 45.6956 14.9152C45.1251 14.4183 44.8307 13.7742 44.8307 12.9828V12.8908C44.8307 10.9033 46.8182 10.2408 48.4561 10.2408ZM50.9957 11.6578V11.345H48.4377C47.904 11.345 47.4071 11.437 46.947 11.6578C46.487 11.8602 46.1741 12.3019 46.1741 12.8724C46.1741 13.3877 46.3581 13.7742 46.7446 14.0686C47.1127 14.3631 47.5727 14.5103 48.1432 14.5103C48.953 14.5103 49.6339 14.2342 50.186 13.7006C50.7197 13.1853 50.9957 12.486 50.9957 11.6578ZM61.2517 12.9276C61.2517 13.7374 60.9388 14.3999 60.3131 14.8968C59.6874 15.412 58.9145 15.6697 58.0127 15.6697C56.5405 15.6697 55.5835 15.0624 55.0867 14.3447C54.7186 13.8478 54.5898 13.4061 54.5346 12.946L55.7492 12.6332C55.8964 13.4797 56.5405 14.5103 57.9943 14.5103C58.5096 14.5103 58.9513 14.3631 59.3378 14.087C59.7058 13.8294 59.8899 13.4613 59.8899 13.0012C59.8899 12.6332 59.7426 12.3387 59.4482 12.1179C59.1537 11.8787 58.8041 11.7314 58.3992 11.6394L57.0006 11.3266C55.4915 10.9953 54.7186 10.1856 54.7186 8.93416C54.7186 7.9956 55.1971 7.22267 55.8596 6.81781C56.5037 6.41294 57.203 6.2105 57.8287 6.2105C59.2089 6.22891 60.0923 6.7626 60.5708 7.42511C60.902 7.88518 61.0492 8.27165 61.1229 8.65811L59.9083 9.00777C59.8162 8.63971 59.669 8.34526 59.3746 7.9772C59.0617 7.60914 58.5096 7.3883 57.8287 7.3883C57.3318 7.3883 56.927 7.51712 56.5773 7.81157C56.2276 8.08762 56.062 8.43728 56.062 8.84214C56.062 9.55986 56.5773 9.89112 57.387 10.0936L58.8593 10.4248C60.0555 10.7009 61.2517 11.4554 61.2517 12.9276ZM69.6625 12.9276C69.6625 13.7374 69.3496 14.3999 68.7239 14.8968C68.0982 15.412 67.3253 15.6697 66.4235 15.6697C64.9513 15.6697 63.9943 15.0624 63.4974 14.3447C63.1294 13.8478 63.0005 13.4061 62.9453 12.946L64.1599 12.6332C64.3072 13.4797 64.9513 14.5103 66.4051 14.5103C66.9204 14.5103 67.3621 14.3631 67.7485 14.087C68.1166 13.8294 68.3006 13.4613 68.3006 13.0012C68.3006 12.6332 68.1534 12.3387 67.859 12.1179C67.5645 11.8787 67.2149 11.7314 66.81 11.6394L65.4114 11.3266C63.9023 10.9953 63.1294 10.1856 63.1294 8.93416C63.1294 7.9956 63.6079 7.22267 64.2704 6.81781C64.9145 6.41294 65.6138 6.2105 66.2395 6.2105C67.6197 6.22891 68.5031 6.7626 68.9815 7.42511C69.3128 7.88518 69.46 8.27165 69.5336 8.65811L68.319 9.00777C68.227 8.63971 68.0798 8.34526 67.7853 7.9772C67.4725 7.60914 66.9204 7.3883 66.2395 7.3883C65.7426 7.3883 65.3377 7.51712 64.9881 7.81157C64.6384 8.08762 64.4728 8.43728 64.4728 8.84214C64.4728 9.55986 64.9881 9.89112 65.7978 10.0936L67.2701 10.4248C68.4663 10.7009 69.6625 11.4554 69.6625 12.9276ZM77.333 8.08762L74.9037 15.5225H73.4315L70.3766 6.37613H71.7752L74.186 13.9582L76.6704 6.37613H78.0323L80.5167 13.9766H80.5351L82.9643 6.37613H84.3445L81.2528 15.5225H79.7806L77.3514 8.08762H77.333ZM89.8696 15.6881C89.0231 15.6881 88.2133 15.4673 87.4956 15.0624C86.7779 14.6391 86.2074 14.0686 85.8025 13.3509C85.3793 12.6332 85.1768 11.8418 85.1768 10.9769C85.1768 9.63348 85.6185 8.49249 86.5387 7.59073C87.4404 6.67058 88.563 6.2105 89.9064 6.2105C92.5013 6.1553 94.6728 8.34526 94.636 10.9217C94.6728 13.5717 92.5013 15.7433 89.8696 15.6881ZM89.9064 14.4919C90.8634 14.4919 91.6731 14.1422 92.3172 13.4613C92.9429 12.7804 93.2558 11.9523 93.2558 10.9769C93.2558 10.0015 92.9429 9.155 92.2988 8.43728C91.6547 7.73796 90.8634 7.3883 89.8696 7.3883C88.9127 7.3883 88.1029 7.73796 87.4772 8.41887C86.8515 9.09979 86.5387 9.92793 86.5387 10.9217C86.5019 12.8172 87.9557 14.5287 89.9064 14.4919ZM96.9818 6.37613H98.2884V8.17963C98.7301 7.27788 99.4662 6.67058 100.166 6.41294C100.515 6.28412 100.883 6.22891 101.251 6.22891C101.454 6.22891 101.601 6.22891 101.693 6.26571V7.68275C101.546 7.64594 101.362 7.64594 101.178 7.64594C99.0062 7.64594 98.3253 9.43104 98.3253 11.0505V15.5225H96.9818V6.37613ZM102.124 10.9401C102.124 9.74389 102.566 8.5661 103.302 7.68275C104.038 6.781 105.161 6.2105 106.412 6.2105C107.259 6.2105 108.013 6.44974 108.584 6.85461C109.154 7.25948 109.559 7.70115 109.964 8.29005V1.57293H111.289V15.5225H109.982V13.5717C109.136 14.9704 107.94 15.6513 106.412 15.6513C105.142 15.6513 104.02 15.0992 103.284 14.2342C102.566 13.3693 102.124 12.1915 102.124 10.9401ZM106.688 14.4919C108.565 14.5103 110.019 12.762 109.982 10.9217C109.982 9.72549 109.393 8.5845 108.381 7.90359C107.866 7.57233 107.295 7.4067 106.688 7.4067C105.713 7.4067 104.94 7.73796 104.369 8.41887C103.78 9.09979 103.486 9.94633 103.486 10.9769C103.486 12.2467 104.001 13.3325 104.977 13.995C105.474 14.3263 106.044 14.4919 106.688 14.4919Z" fill="#1F4283" fill-opacity="0.63"/>
<path d="M475.511 45.9722C468.743 45.9722 465.387 40.1621 465.247 39.915C465.139 39.7225 465.139 39.4887 465.247 39.2963C465.387 39.0493 468.743 33.2393 475.511 33.2393C482.28 33.2393 485.636 39.0493 485.776 39.2965C485.884 39.4889 485.884 39.7227 485.776 39.9151C485.636 40.1621 482.28 45.9722 475.511 45.9722ZM466.573 39.6048C467.343 40.7525 470.362 44.6989 475.511 44.6989C480.677 44.6989 483.683 40.7556 484.45 39.6067C483.68 38.459 480.661 34.5125 475.511 34.5125C470.346 34.5125 467.34 38.4558 466.573 39.6048ZM475.511 43.4256C473.372 43.4256 471.632 41.712 471.632 39.6057C471.632 37.4994 473.372 35.7858 475.511 35.7858C477.651 35.7858 479.391 37.4994 479.391 39.6057C479.391 41.712 477.651 43.4256 475.511 43.4256ZM475.511 37.0591C474.085 37.0591 472.925 38.2016 472.925 39.6057C472.925 41.0098 474.085 42.1523 475.511 42.1523C476.938 42.1523 478.098 41.0098 478.098 39.6057C478.098 38.2016 476.938 37.0591 475.511 37.0591Z" fill="#6981AC"/>
<path d="M37.4363 40.4182C37.319 38.5601 35.8293 37.0789 33.9711 36.9726M37.4363 40.4182C37.545 42.1298 37.5951 43.8664 37.5871 45.5874C40.0887 45.6032 42.5879 45.657 45.0726 45.75C46.2779 45.7945 47.2957 46.6959 47.4928 47.8932C47.7811 49.6409 47.7811 51.4133 47.4926 53.1612C47.2956 54.358 46.2778 55.2595 45.0725 55.3049C44.811 55.3146 44.5497 55.3237 44.2884 55.3328M37.4363 40.4182L37.586 40.4087C37.586 40.4087 37.586 40.4087 37.586 40.4088C37.6917 42.0742 37.7421 43.7631 37.7376 45.4384C40.1908 45.4554 42.6415 45.5089 45.0782 45.6001C46.3554 45.6473 47.4322 46.6018 47.6408 47.8688C47.9317 49.6326 47.9317 51.4215 47.6406 53.1856C47.4321 54.4521 46.3553 55.4067 45.0782 55.4548L45.0781 55.4548C44.8172 55.4645 44.5564 55.4736 44.2958 55.4826L44.2937 55.4827L44.2884 55.3328M37.4363 40.4182L44.2936 55.4827M33.9711 36.9726L45.0388 46.6577C45.8142 46.6864 46.4693 47.2682 46.5965 48.0411C46.8686 49.6907 46.8686 51.3637 46.5965 53.0135C46.4693 53.7862 45.8141 54.3681 45.0387 54.3973M33.9711 36.9726C31.6954 36.8432 29.4 36.7775 27.1486 36.7775C25.9318 36.7775 24.7019 36.7974 23.4693 36.8355L33.9711 36.9726ZM44.2884 55.3328C44.0381 55.3417 43.8275 55.1454 43.8187 54.8947C43.81 54.6441 44.0061 54.4338 44.2568 54.4251C44.5175 54.4161 44.7781 54.407 45.0387 54.3973M44.2884 55.3328L44.2936 55.4827M45.0387 54.3973L45.0331 54.2474M45.0387 54.3973L45.0331 54.2474C45.0331 54.2474 45.0331 54.2474 45.0331 54.2474M45.0331 54.2474C45.7363 54.2209 46.3327 53.6924 46.4485 52.9891L46.4485 52.9891C46.718 51.3554 46.718 49.699 46.4485 48.0655L46.4485 48.0654C46.3327 47.362 45.7363 46.8337 45.0332 46.8076L45.0331 46.8076C39.0743 46.5846 33.0317 46.5846 27.0729 46.8076L27.0728 46.8076C26.3695 46.8337 25.7732 47.362 25.6574 48.0653L25.6574 48.0653C25.388 49.699 25.388 51.3554 25.6574 52.989L25.6574 52.989C25.7732 53.6924 26.3697 54.2209 27.0731 54.2474C32.1703 54.4378 37.3427 54.4655 42.4461 54.3295L42.4465 54.3295C42.7759 54.3216 43.0572 54.5829 43.0661 54.9174V54.9174C43.075 55.2508 42.8118 55.5285 42.4783 55.5374C40.3451 55.5941 38.1997 55.6226 36.053 55.6226C33.0381 55.6226 30.0202 55.5665 27.0278 55.4547C25.9904 55.4158 25.0859 54.7785 24.6708 53.8627C23.2273 53.8326 21.7657 53.7766 20.3183 53.6935C20.3183 53.6935 20.3183 53.6935 20.3183 53.6935L20.3269 53.5438L45.0331 54.2474ZM45.0331 54.2474C44.7727 54.2571 44.5123 54.2662 44.2516 54.2752C43.9181 54.2868 43.6572 54.5665 43.6688 54.8999L43.6688 54.9C43.6805 55.2333 43.9604 55.4945 44.2936 55.4827M45.0331 54.2474L44.2936 55.4827M22.923 33.2876C22.9231 33.2876 22.9232 33.2876 22.9233 33.2876L22.9195 33.4375L22.923 33.2876ZM22.923 33.2876C22.5867 33.2792 22.3127 33.5446 22.3049 33.8773C22.2826 34.8277 22.2685 35.7837 22.2618 36.7287L22.923 33.2876ZM17.9169 40.4851C18.0011 39.1606 19.0631 38.1048 20.3868 38.0291C22.6425 37.9008 24.9175 37.8357 27.1486 37.8357C29.38 37.8357 31.6552 37.9008 33.9108 38.0291C35.2349 38.1048 36.2966 39.1606 36.3802 40.485L36.3802 40.4851C36.4842 42.1234 36.5338 43.7849 36.5294 45.433C33.3553 45.4268 30.18 45.4821 27.028 45.6001C25.7508 45.6474 24.6738 46.6018 24.4653 47.8687C24.2038 49.4536 24.1776 51.0586 24.386 52.6474C23.0579 52.6163 21.7167 52.5634 20.3875 52.4872L20.3875 52.4872C19.0634 52.4115 18.0017 51.3557 17.9181 50.0313L17.9181 50.0313C17.7174 46.8599 17.717 43.6481 17.9169 40.4851ZM17.9169 40.4851L17.7672 40.4756M17.9169 40.4851L17.7672 40.4756M17.7672 40.4756C17.8562 39.0755 18.9787 37.9593 20.3782 37.8793M17.7672 40.4756C17.5669 43.6449 17.5673 46.8631 17.7684 50.0408L20.3782 37.8793M20.3782 37.8793C22.6367 37.7509 24.9146 37.6857 27.1486 37.6857C29.3829 37.6857 31.6609 37.7509 33.9194 37.8793H20.3782ZM27.1485 26.2709C28.0912 26.2709 29.0446 26.3058 29.9824 26.3748L27.1485 26.2709ZM27.1485 26.2709C26.2062 26.2709 25.253 26.3058 24.3153 26.3748M27.1485 26.2709L24.3153 26.3748M24.3153 26.3748C21.3602 26.5918 19.055 28.984 18.9542 31.9394M24.3153 26.3748L18.9542 31.9394M18.9542 31.9394C18.8946 33.6784 18.8611 35.4483 18.8527 37.207L18.9542 31.9394ZM20.0635 36.8465C20.0745 35.2202 20.1067 33.5872 20.1617 31.9806L20.1617 31.9806C20.2414 29.6436 22.0646 27.7516 24.4038 27.5799L24.4039 27.5799C25.3122 27.513 26.2357 27.4792 27.1485 27.4792C28.0617 27.4792 28.9854 27.513 29.8938 27.5799L29.8938 27.5799C32.233 27.7516 34.0562 29.6437 34.1359 31.981L34.1359 31.9811C34.1501 32.3866 34.1629 32.8037 34.174 33.2269H31.9766C31.9659 32.8358 31.9539 32.4438 31.9405 32.0559L31.9405 32.0559C31.8983 30.8429 30.9485 29.8611 29.7327 29.7711L29.7325 29.7711C28.8749 29.7086 28.0056 29.6768 27.1485 29.6768C26.2918 29.6768 25.4227 29.7085 24.5646 29.7711L24.5644 29.7711C23.3491 29.8611 22.3993 30.8428 22.357 32.0558L22.357 32.0558C22.3454 32.3893 22.6063 32.6689 22.9397 32.6806L20.0635 36.8465ZM23.5646 32.0979C23.5852 31.5038 24.0521 31.0207 24.6529 30.9761L22.9397 32.6806C23.273 32.6924 23.553 32.4313 23.5646 32.0979ZM24.6531 30.9761C25.4815 30.9157 26.3211 30.8851 27.1485 30.8851C27.9763 30.8851 28.8161 30.9157 29.644 30.9761C30.2453 31.0206 30.7122 31.5037 30.7329 32.0975C30.7329 32.0976 30.733 32.0976 30.733 32.0976L30.8829 32.0924C30.9027 32.6717 30.9198 33.2603 30.9336 33.8418C30.9395 34.0883 31.141 34.2852 31.3876 34.2852H34.7929L24.6531 30.9761ZM35.2249 34.2534C35.3385 34.1372 35.4005 33.9801 35.3969 33.8176C35.3827 33.1776 35.3647 32.5456 35.3435 31.9393C35.2426 28.9839 32.9374 26.5919 29.9824 26.3748L35.2249 34.2534Z" fill="#6981AC" stroke="#6981AC" stroke-width="0.3"/>
<path d="M30.4394 49.2163L30.3644 49.0864C30.6533 48.9196 31.0228 49.0185 31.1896 49.3075C31.3565 49.5965 31.2575 49.966 30.9685 50.1329L30.9685 50.1329L30.083 50.6442L30.9685 51.1554C31.2575 51.3222 31.3565 51.6917 31.1896 51.9807L31.1896 51.9807C31.0777 52.1746 30.8744 52.2828 30.666 52.2828C30.5634 52.2828 30.4593 52.2566 30.3644 52.2018C30.3644 52.2018 30.3644 52.2018 30.3644 52.2018L29.4789 51.6905V52.713C29.4789 53.0466 29.2084 53.3171 28.8748 53.3171C28.5411 53.3171 28.2706 53.0466 28.2706 52.713V51.6905L27.3852 52.2017C27.3852 52.2017 27.3852 52.2017 27.3852 52.2017C27.2902 52.2565 27.1861 52.2827 27.0835 52.2827C26.8752 52.2827 26.6719 52.1746 26.5599 51.9806L30.4394 49.2163ZM30.4394 49.2163L30.3644 49.0864L29.4789 49.5977M30.4394 49.2163L29.4789 49.5977M29.4789 49.5977V48.5752C29.4789 48.2416 29.2084 47.9711 28.8748 47.9711C28.5411 47.9711 28.2706 48.2416 28.2706 48.5752V49.5977L27.3852 49.0865C27.3852 49.0865 27.3852 49.0865 27.3852 49.0865C27.0962 48.9196 26.7267 49.0187 26.5599 49.3076L29.4789 49.5977ZM26.781 50.1328L27.6665 50.6441L26.5599 49.3076C26.3931 49.5966 26.4921 49.966 26.781 50.1328Z" fill="#6981AC" stroke="#6981AC" stroke-width="0.3"/>
<path d="M35.6818 51.9806L35.6818 51.9806C35.5698 52.1745 35.3666 52.2827 35.1582 52.2827C35.0556 52.2827 34.9515 52.2565 34.8566 52.2017C34.8566 52.2017 34.8566 52.2017 34.8566 52.2017L33.9711 51.6905V52.713C33.9711 53.0466 33.7006 53.3171 33.367 53.3171C33.0333 53.3171 32.7628 53.0466 32.7628 52.713V51.6905L31.8774 52.2017C31.8774 52.2017 31.8774 52.2017 31.8773 52.2017C31.7824 52.2565 31.6783 52.2827 31.5757 52.2827C31.3674 52.2827 31.1641 52.1746 31.0521 51.9806H35.6818ZM35.6818 51.9806C35.8486 51.6917 35.7496 51.3222 35.4607 51.1554L34.5752 50.6441L35.4607 50.1329C35.4607 50.1328 35.4607 50.1328 35.4607 50.1328C35.7497 49.9661 35.8486 49.5966 35.6818 49.3076C35.515 49.0186 35.1454 48.9197 34.8566 49.0865L33.9711 49.5977V48.5752C33.9711 48.2416 33.7006 47.9711 33.367 47.9711C33.0333 47.9711 32.7628 48.2416 32.7628 48.5752V49.5977L31.8774 49.0865C31.8774 49.0865 31.8774 49.0865 31.8773 49.0865C31.5884 48.9196 31.2189 49.0187 31.0521 49.3076C30.8853 49.5965 30.9843 49.966 31.2732 50.1328L32.1587 50.6441L35.6818 51.9806Z" fill="#6981AC" stroke="#6981AC" stroke-width="0.3"/>
<path d="M40.173 51.9806L40.173 51.9806C40.061 52.1745 39.8578 52.2827 39.6494 52.2827C39.5468 52.2827 39.4427 52.2565 39.3478 52.2017C39.3478 52.2017 39.3478 52.2017 39.3478 52.2017L38.4623 51.6905V52.713C38.4623 53.0466 38.1918 53.3171 37.8582 53.3171C37.5245 53.3171 37.254 53.0466 37.254 52.713V51.6905L36.3686 52.2017C36.3686 52.2017 36.3686 52.2017 36.3686 52.2017C36.2736 52.2565 36.1695 52.2827 36.0669 52.2827C35.8586 52.2827 35.6553 52.1746 35.5433 51.9806H40.173ZM40.173 51.9806C40.3399 51.6917 40.2409 51.3222 39.9519 51.1554L39.0664 50.6441L39.9519 50.1329C39.9519 50.1328 39.9519 50.1328 39.9519 50.1328C40.2409 49.9661 40.3398 49.5966 40.173 49.3076C40.0062 49.0186 39.6366 48.9197 39.3478 49.0865M40.173 51.9806L39.3478 49.0865M39.3478 49.0865L38.4623 49.5977M39.3478 49.0865L38.4623 49.5977M38.4623 49.5977V48.5752C38.4623 48.2416 38.1918 47.9711 37.8582 47.9711C37.5245 47.9711 37.254 48.2416 37.254 48.5752V49.5977" fill="#6981AC" stroke="#6981AC" stroke-width="0.3"/>
<path d="M44.6653 51.9806L44.6653 51.9806C44.5533 52.1745 44.35 52.2827 44.1417 52.2827C44.0391 52.2827 43.935 52.2565 43.84 52.2017C43.84 52.2017 43.84 52.2017 43.84 52.2017L42.9545 51.6904V52.713C42.9545 53.0466 42.684 53.3171 42.3504 53.3171C42.0167 53.3171 41.7462 53.0466 41.7462 52.713V51.6905L40.8608 52.2017C40.8608 52.2017 40.8607 52.2017 40.8607 52.2017C40.7658 52.2565 40.6617 52.2827 40.5591 52.2827C40.3508 52.2827 40.1475 52.1746 40.0355 51.9806C40.0355 51.9806 40.0355 51.9806 40.0355 51.9806L44.6653 51.9806ZM44.6653 51.9806C44.8321 51.6917 44.7331 51.3222 44.4442 51.1554M44.6653 51.9806L44.4442 51.1554M43.915 49.2163L43.84 49.0864C44.1289 48.9196 44.4984 49.0185 44.6652 49.3075C44.6652 49.3075 44.6652 49.3075 44.6652 49.3076L44.5353 49.3825L43.915 49.2163ZM43.915 49.2163L43.84 49.0864L42.9545 49.5977M43.915 49.2163L42.9545 49.5977M44.4442 51.1554L43.5586 50.644L44.4442 51.1554ZM42.9545 49.5977V48.5752C42.9545 48.2416 42.684 47.9711 42.3504 47.9711C42.0167 47.9711 41.7462 48.2416 41.7462 48.5752V49.5977L40.8608 49.0865C40.8608 49.0865 40.8608 49.0865 40.8607 49.0865C40.5718 48.9196 40.2023 49.0187 40.0355 49.3076C39.8687 49.5965 39.9677 49.966 40.2566 50.1328L41.1421 50.6441L42.9545 49.5977Z" fill="#6981AC" stroke="#6981AC" stroke-width="0.3"/>
<path d="M37.5397 29.4404C37.2379 29.2976 36.8779 29.4266 36.7353 29.7282C36.7353 29.7282 36.7353 29.7282 36.7353 29.7282L35.8593 31.5801C35.7166 31.8817 35.8455 32.2419 36.1471 32.3846L36.1471 32.3846C36.2303 32.4239 36.3183 32.4427 36.4051 32.4427C36.6311 32.4427 36.8482 32.3152 36.9515 32.0968L36.9515 32.0968L37.8275 30.2448L37.8275 30.2448C37.9702 29.9432 37.8413 29.5831 37.5397 29.4404ZM37.5397 29.4404L37.4756 29.576L37.5397 29.4404C37.5397 29.4404 37.5397 29.4404 37.5397 29.4404Z" fill="#6981AC" stroke="#6981AC" stroke-width="0.3"/>
<path d="M37.0309 34.8544L37.0309 34.8544C36.7293 34.7117 36.6004 34.3516 36.7431 34.05L37.0309 34.8544ZM37.0309 34.8544L38.8828 35.7303L38.9469 35.5947M37.0309 34.8544L38.9469 35.5947M38.9469 35.5947L38.8828 35.7303C38.966 35.7696 39.054 35.7884 39.1408 35.7884C39.3668 35.7884 39.584 35.6608 39.6872 35.4425L39.6873 35.4425M38.9469 35.5947L39.6873 35.4425M39.6873 35.4425C39.8299 35.1409 39.701 34.7807 39.3994 34.6381L39.3994 34.6381M39.6873 35.4425L39.3994 34.6381M39.3994 34.6381L37.5475 33.7622C37.5475 33.7622 37.5475 33.7622 37.5475 33.7622M39.3994 34.6381L37.5475 33.7622M37.5475 33.7622C37.2458 33.6194 36.8856 33.7484 36.7431 34.05L37.5475 33.7622Z" fill="#6981AC" stroke="#6981AC" stroke-width="0.3"/>
<path d="M37.563 33.4594L37.5629 33.4594C37.496 33.4833 37.4273 33.4948 37.3596 33.4948C37.1117 33.4948 36.8792 33.3411 36.7907 33.094C36.6783 32.7799 36.8419 32.4341 37.156 32.3217L37.563 33.4594ZM37.563 33.4594L39.4919 32.7692L39.4919 32.7692C39.806 32.6568 39.9697 32.3111 39.8572 31.9969C39.7449 31.6829 39.3991 31.519 39.0849 31.6316C39.0849 31.6316 39.0848 31.6316 39.0848 31.6316L37.1561 32.3217L37.563 33.4594Z" fill="#6981AC" stroke="#6981AC" stroke-width="0.3"/>
</svg>
