<svg width="176" height="45" viewBox="0 0 176 45" fill="none" xmlns="http://www.w3.org/2000/svg">
<g filter="url(#filter0_d_2647_3826)">
<rect x="6" y="4" width="164" height="33" rx="16.5" fill="#94ACE8"/>
</g>
<path d="M52.754 25.126C51.214 25.14 49.674 24.426 48.694 23.18C48.036 22.368 47.63 21.206 47.63 19.932C47.63 19.176 47.77 18.476 48.05 17.804C48.33 17.146 48.708 16.586 49.184 16.124C49.66 15.676 50.22 15.312 50.85 15.046C51.48 14.78 52.138 14.64 52.824 14.64C53.93 14.64 54.938 14.962 55.638 15.41C55.974 15.648 56.282 15.9 56.562 16.208C57.094 16.81 57.388 17.398 57.542 17.986L55.96 18.532C55.89 18.21 55.778 17.888 55.456 17.426C55.288 17.188 55.092 16.978 54.868 16.81C54.434 16.446 53.678 16.152 52.81 16.152C51.9 16.152 51.046 16.53 50.388 17.16C49.744 17.79 49.31 18.77 49.31 19.876C49.31 20.982 49.73 21.976 50.374 22.606C51.018 23.236 51.886 23.614 52.796 23.614C53.594 23.614 54.322 23.334 54.77 22.984C54.994 22.802 55.204 22.606 55.386 22.368C55.736 21.906 55.89 21.542 55.988 21.192L57.57 21.738C57.388 22.382 56.968 23.208 56.17 23.894C55.624 24.356 54.994 24.734 54.14 24.958C53.692 25.07 53.23 25.126 52.754 25.126ZM64.5722 25H63.0602C63.0182 24.804 62.9902 24.496 62.9902 24.048C62.7522 24.44 62.4582 24.706 62.0942 24.874C61.7162 25.042 61.3382 25.126 60.9462 25.126C60.2742 25.126 59.7002 24.93 59.2662 24.538C58.8322 24.16 58.6082 23.67 58.6082 23.068V22.998C58.6222 22.032 59.1962 21.444 59.9522 21.15C60.4842 20.94 60.9882 20.87 61.4922 20.87H62.3602C62.7942 20.87 63.0042 20.674 63.0042 20.282C63.0042 19.988 62.8922 19.736 62.6542 19.526C62.4162 19.33 62.0802 19.218 61.6322 19.218C60.8062 19.218 60.2322 19.68 60.1202 20.38L58.7062 20.058C58.7482 19.736 58.9022 19.386 59.1822 19.008C59.4622 18.644 59.8122 18.364 60.2742 18.168C60.6662 17.986 61.1422 17.902 61.6882 17.902C62.9902 17.902 63.8582 18.378 64.2922 19.33C64.4462 19.666 64.5302 20.072 64.5302 20.562V23.88C64.5302 24.342 64.5442 24.72 64.5722 25ZM62.9902 22.186V21.962H61.4922C61.1562 21.962 60.8622 22.046 60.5822 22.214C60.3022 22.396 60.1622 22.634 60.1622 22.928C60.1622 23.502 60.6102 23.88 61.2682 23.88C61.7862 23.88 62.2202 23.726 62.5282 23.418C62.8362 23.11 62.9902 22.704 62.9902 22.186ZM68.7884 25.126C67.6684 25.112 66.9124 24.678 66.5064 24.146C66.2124 23.768 66.0724 23.432 66.0444 23.096L67.3744 22.746C67.5144 23.39 68.0044 23.852 68.7744 23.852C69.4044 23.852 69.7544 23.53 69.7544 23.04C69.7544 22.662 69.5164 22.41 68.9284 22.27L68.0464 22.06C66.8144 21.78 66.1984 21.01 66.1984 20.072C66.1984 19.47 66.4364 18.966 66.9124 18.532C67.3744 18.112 67.9624 17.888 68.6624 17.888C69.7404 17.902 70.4264 18.308 70.8044 18.812C71.0704 19.162 71.1824 19.456 71.2244 19.75L69.9224 20.114C69.7964 19.582 69.4044 19.148 68.6624 19.148C68.4104 19.148 68.1864 19.218 67.9904 19.372C67.7944 19.512 67.7104 19.708 67.7104 19.932C67.7104 20.324 67.9904 20.576 68.4104 20.66L69.3624 20.856C69.9784 20.996 70.4684 21.248 70.8184 21.626C71.1544 22.004 71.3364 22.452 71.3364 22.956C71.3364 24.02 70.5244 25.126 68.7884 25.126ZM79.3855 21.976H74.0935C74.1215 23.012 75.1295 23.81 76.1375 23.796C77.0335 23.796 77.7195 23.418 77.9855 22.62L79.2875 23.026C79.0355 23.88 78.3355 24.566 77.4955 24.888C77.0615 25.042 76.6275 25.126 76.1515 25.126C74.1495 25.168 72.4695 23.53 72.5115 21.514C72.5115 20.856 72.6655 20.254 72.9595 19.708C73.2675 19.148 73.6735 18.714 74.2195 18.392C74.7515 18.07 75.3535 17.902 76.0115 17.902C77.0755 17.902 77.9015 18.224 78.5035 18.896C79.1055 19.554 79.4135 20.422 79.4135 21.5C79.4135 21.668 79.3995 21.836 79.3855 21.976ZM76.0255 19.232C75.5495 19.232 75.1295 19.372 74.7935 19.666C74.4575 19.946 74.2475 20.324 74.1775 20.8H77.8315C77.8035 20.324 77.6215 19.946 77.2855 19.652C76.9355 19.372 76.5155 19.232 76.0255 19.232ZM84.5002 16.502C84.3042 16.306 84.1922 16.068 84.1922 15.788C84.1922 15.494 84.3042 15.256 84.5002 15.06C84.6962 14.85 84.9342 14.752 85.2142 14.752C85.5082 14.752 85.7462 14.85 85.9422 15.06C86.1382 15.256 86.2362 15.494 86.2362 15.788C86.2362 16.068 86.1382 16.306 85.9422 16.502C85.7462 16.698 85.5082 16.81 85.2142 16.81C84.9342 16.81 84.6962 16.698 84.5002 16.502ZM84.4442 25V18.042H85.9982V25H84.4442ZM92.7713 25V21.108C92.7713 20.058 92.2533 19.372 91.2313 19.372C90.7413 19.372 90.3493 19.526 90.0553 19.848C89.7613 20.17 89.6213 20.59 89.6213 21.122V25H88.0673V18.042H89.5793V18.98C89.7893 18.7 90.0413 18.476 90.3213 18.308C90.6013 18.14 90.8393 18.028 91.0633 17.972C91.2733 17.93 91.4973 17.902 91.7073 17.902C92.5613 17.902 93.2053 18.154 93.6533 18.686C94.1012 19.204 94.3113 19.89 94.3113 20.716V25H92.7713ZM107.023 21.5C107.023 22.13 106.883 22.718 106.603 23.264C106.309 23.81 105.903 24.258 105.371 24.594C104.825 24.93 104.237 25.112 103.565 25.112C103.145 25.112 102.641 25 102.025 24.65C101.717 24.468 101.479 24.244 101.311 23.978V28.43H99.7567V18.042H101.269V19.12C101.549 18.672 101.997 18.322 102.431 18.154C102.865 17.986 103.271 17.902 103.607 17.902C104.643 17.902 105.553 18.364 106.127 19.05C106.687 19.736 107.023 20.604 107.023 21.5ZM101.283 21.514C101.283 22.13 101.479 22.634 101.871 23.068C102.263 23.488 102.753 23.698 103.369 23.698C103.985 23.698 104.489 23.488 104.881 23.068C105.273 22.634 105.455 22.13 105.455 21.514C105.455 20.898 105.273 20.38 104.881 19.946C104.489 19.526 103.985 19.316 103.369 19.316C102.753 19.316 102.263 19.526 101.871 19.946C101.479 20.38 101.283 20.898 101.283 21.514ZM112.438 18.014V19.61C112.312 19.582 112.172 19.568 112.004 19.568C110.828 19.568 110.184 20.254 110.184 21.458V25H108.63V18.042H110.156V19.12C110.562 18.378 111.304 17.986 112.06 17.986C112.2 17.986 112.326 18 112.438 18.014ZM112.939 21.514C112.939 20.842 113.107 20.226 113.443 19.666C113.779 19.12 114.213 18.672 114.787 18.364C115.347 18.056 115.963 17.902 116.635 17.902C117.279 17.902 117.895 18.056 118.455 18.364C119.015 18.672 119.463 19.106 119.799 19.652C120.121 20.212 120.289 20.814 120.289 21.486C120.331 23.502 118.609 25.168 116.621 25.126C115.949 25.126 115.347 24.958 114.787 24.65C114.213 24.342 113.779 23.894 113.443 23.348C113.107 22.788 112.939 22.186 112.939 21.514ZM114.535 21.486C114.535 22.088 114.731 22.62 115.123 23.054C115.515 23.488 116.019 23.712 116.635 23.712C117.251 23.712 117.741 23.502 118.133 23.068C118.511 22.648 118.707 22.13 118.707 21.514C118.707 20.898 118.511 20.366 118.119 19.946C117.741 19.512 117.237 19.302 116.621 19.302C116.005 19.302 115.501 19.512 115.109 19.932C114.717 20.352 114.535 20.87 114.535 21.486ZM124.803 25.056C123.837 25.056 122.941 24.636 122.367 23.978C121.779 23.32 121.415 22.424 121.415 21.5C121.415 20.632 121.751 19.764 122.325 19.078C122.885 18.392 123.809 17.93 124.845 17.93C125.223 17.93 125.629 18.014 126.077 18.21C126.525 18.42 126.875 18.7 127.127 19.106V18.042H128.639V24.958C128.639 25.686 128.471 26.302 128.135 26.848C127.799 27.38 127.365 27.8 126.791 28.066C126.231 28.346 125.587 28.486 124.873 28.486C123.823 28.486 122.857 28.178 122.129 27.45C121.765 27.086 121.541 26.638 121.443 26.134L122.899 25.714C122.983 26.092 123.207 26.414 123.571 26.68C123.935 26.96 124.341 27.1 124.817 27.1C125.965 27.1 127.085 26.484 127.085 25.028V23.88C126.917 24.16 126.665 24.398 126.371 24.58C126.063 24.762 125.783 24.888 125.517 24.958C125.265 25.014 125.027 25.056 124.803 25.056ZM127.113 21.472C127.113 20.856 126.917 20.338 126.539 19.932C126.161 19.512 125.657 19.316 125.041 19.316C124.425 19.316 123.921 19.512 123.529 19.932C123.151 20.338 122.955 20.856 122.955 21.472C122.955 22.088 123.151 22.606 123.543 23.026C123.935 23.46 124.425 23.67 125.041 23.67C125.657 23.67 126.147 23.46 126.539 23.026C126.917 22.606 127.113 22.088 127.113 21.472ZM134.518 18.014V19.61C134.392 19.582 134.252 19.568 134.084 19.568C132.908 19.568 132.264 20.254 132.264 21.458V25H130.71V18.042H132.236V19.12C132.642 18.378 133.384 17.986 134.14 17.986C134.28 17.986 134.406 18 134.518 18.014ZM141.907 21.976H136.615C136.643 23.012 137.651 23.81 138.659 23.796C139.555 23.796 140.241 23.418 140.507 22.62L141.809 23.026C141.557 23.88 140.857 24.566 140.017 24.888C139.583 25.042 139.149 25.126 138.673 25.126C136.671 25.168 134.991 23.53 135.033 21.514C135.033 20.856 135.187 20.254 135.481 19.708C135.789 19.148 136.195 18.714 136.741 18.392C137.273 18.07 137.875 17.902 138.533 17.902C139.597 17.902 140.423 18.224 141.025 18.896C141.627 19.554 141.935 20.422 141.935 21.5C141.935 21.668 141.921 21.836 141.907 21.976ZM138.547 19.232C138.071 19.232 137.651 19.372 137.315 19.666C136.979 19.946 136.769 20.324 136.699 20.8H140.353C140.325 20.324 140.143 19.946 139.807 19.652C139.457 19.372 139.037 19.232 138.547 19.232ZM145.788 25.126C144.668 25.112 143.912 24.678 143.506 24.146C143.212 23.768 143.072 23.432 143.044 23.096L144.374 22.746C144.514 23.39 145.004 23.852 145.774 23.852C146.404 23.852 146.754 23.53 146.754 23.04C146.754 22.662 146.516 22.41 145.928 22.27L145.046 22.06C143.814 21.78 143.198 21.01 143.198 20.072C143.198 19.47 143.436 18.966 143.912 18.532C144.374 18.112 144.962 17.888 145.662 17.888C146.74 17.902 147.426 18.308 147.804 18.812C148.07 19.162 148.182 19.456 148.224 19.75L146.922 20.114C146.796 19.582 146.404 19.148 145.662 19.148C145.41 19.148 145.186 19.218 144.99 19.372C144.794 19.512 144.71 19.708 144.71 19.932C144.71 20.324 144.99 20.576 145.41 20.66L146.362 20.856C146.978 20.996 147.468 21.248 147.818 21.626C148.154 22.004 148.336 22.452 148.336 22.956C148.336 24.02 147.524 25.126 145.788 25.126ZM152.242 25.126C151.122 25.112 150.366 24.678 149.96 24.146C149.666 23.768 149.526 23.432 149.498 23.096L150.828 22.746C150.968 23.39 151.458 23.852 152.228 23.852C152.858 23.852 153.208 23.53 153.208 23.04C153.208 22.662 152.97 22.41 152.382 22.27L151.5 22.06C150.268 21.78 149.652 21.01 149.652 20.072C149.652 19.47 149.89 18.966 150.366 18.532C150.828 18.112 151.416 17.888 152.116 17.888C153.194 17.902 153.88 18.308 154.258 18.812C154.524 19.162 154.636 19.456 154.678 19.75L153.376 20.114C153.25 19.582 152.858 19.148 152.116 19.148C151.864 19.148 151.64 19.218 151.444 19.372C151.248 19.512 151.164 19.708 151.164 19.932C151.164 20.324 151.444 20.576 151.864 20.66L152.816 20.856C153.432 20.996 153.922 21.248 154.272 21.626C154.608 22.004 154.79 22.452 154.79 22.956C154.79 24.02 153.978 25.126 152.242 25.126Z" fill="#08265F"/>
<g filter="url(#filter1_d_2647_3826)">
<circle cx="23.5" cy="20.5" r="16.5" fill="#94ACE8"/>
</g>
<path d="M28.8859 25.2946C29.1683 25.5473 29.1941 25.9835 28.9188 26.2439C27.6693 27.4257 26.0767 28.1917 24.3612 28.4248C22.4182 28.6889 20.4447 28.2524 18.7945 27.1934C17.1442 26.1345 15.9251 24.5223 15.3556 22.6461C14.7861 20.7698 14.9035 18.752 15.6868 16.9544C16.4701 15.1569 17.868 13.697 19.6299 12.8367C21.3919 11.9763 23.4027 11.7716 25.3019 12.2592C27.2011 12.7469 28.8645 13.8951 29.9939 15.4979C30.9911 16.9131 31.5145 18.6011 31.4997 20.3209C31.4964 20.6998 31.1594 20.9779 30.782 20.9432C30.4046 20.9084 30.1305 20.5739 30.1274 20.1949C30.1163 18.8008 29.6814 17.4369 28.8721 16.2884C27.9305 14.9522 26.5438 13.995 24.9606 13.5885C23.3773 13.1819 21.701 13.3526 20.2321 14.0698C18.7633 14.7871 17.5979 16.0041 16.9449 17.5026C16.2919 19.0012 16.1941 20.6833 16.6688 22.2475C17.1436 23.8117 18.1599 25.1556 19.5356 26.0384C20.9114 26.9212 22.5566 27.2851 24.1763 27.065C25.5685 26.8758 26.8636 26.2657 27.8922 25.3246C28.1719 25.0688 28.6035 25.0419 28.8859 25.2946Z" fill="#08265F"/>
<path d="M20.7408 16.2793C20.6025 16.0678 20.6612 15.7825 20.8834 15.6623C21.8919 15.1169 23.0497 14.8985 24.1946 15.0443C25.4913 15.2095 26.6868 15.8311 27.5668 16.7978C28.4467 17.7645 28.9536 19.0129 28.9966 20.3194C29.0396 21.6259 28.6158 22.905 27.8013 23.9274C26.9867 24.9498 25.8346 25.6487 24.5516 25.8987C23.2685 26.1487 21.9383 25.9336 20.7995 25.2918C19.6607 24.6501 18.7876 23.6237 18.3369 22.3967C17.9389 21.3133 17.8931 20.136 18.1994 19.0311C18.2669 18.7877 18.5319 18.6668 18.769 18.7543C19.006 18.8417 19.1248 19.1045 19.0614 19.349C18.828 20.2487 18.8727 21.202 19.1957 22.0812C19.5714 23.1041 20.2993 23.9598 21.2487 24.4948C22.198 25.0298 23.307 25.2091 24.3766 25.0007C25.4462 24.7922 26.4066 24.2096 27.0857 23.3573C27.7647 22.505 28.118 21.4387 28.0822 20.3495C28.0464 19.2603 27.6238 18.2195 26.8902 17.4137C26.1566 16.6078 25.16 16.0896 24.079 15.9519C23.1498 15.8335 22.2106 16.0029 21.3858 16.4314C21.1616 16.5479 20.879 16.4908 20.7408 16.2793Z" fill="#08265F"/>
<defs>
<filter id="filter0_d_2647_3826" x="0.3" y="0.3" width="175.4" height="44.4" filterUnits="userSpaceOnUse" color-interpolation-filters="sRGB">
<feFlood flood-opacity="0" result="BackgroundImageFix"/>
<feColorMatrix in="SourceAlpha" type="matrix" values="0 0 0 0 0 0 0 0 0 0 0 0 0 0 0 0 0 0 127 0" result="hardAlpha"/>
<feOffset dy="2"/>
<feGaussianBlur stdDeviation="2.85"/>
<feComposite in2="hardAlpha" operator="out"/>
<feColorMatrix type="matrix" values="0 0 0 0 0 0 0 0 0 0 0 0 0 0 0 0 0 0 0.15 0"/>
<feBlend mode="normal" in2="BackgroundImageFix" result="effect1_dropShadow_2647_3826"/>
<feBlend mode="normal" in="SourceGraphic" in2="effect1_dropShadow_2647_3826" result="shape"/>
</filter>
<filter id="filter1_d_2647_3826" x="6.2" y="2.7" width="36.6" height="36.6" filterUnits="userSpaceOnUse" color-interpolation-filters="sRGB">
<feFlood flood-opacity="0" result="BackgroundImageFix"/>
<feColorMatrix in="SourceAlpha" type="matrix" values="0 0 0 0 0 0 0 0 0 0 0 0 0 0 0 0 0 0 127 0" result="hardAlpha"/>
<feOffset dx="1" dy="0.5"/>
<feGaussianBlur stdDeviation="0.9"/>
<feComposite in2="hardAlpha" operator="out"/>
<feColorMatrix type="matrix" values="0 0 0 0 0 0 0 0 0 0 0 0 0 0 0 0 0 0 0.2 0"/>
<feBlend mode="normal" in2="BackgroundImageFix" result="effect1_dropShadow_2647_3826"/>
<feBlend mode="normal" in="SourceGraphic" in2="effect1_dropShadow_2647_3826" result="shape"/>
</filter>
</defs>
</svg>
