<svg width="506" height="71" viewBox="0 0 506 71" fill="none" xmlns="http://www.w3.org/2000/svg">
<path d="M167 9.20117H494.305C499.951 9.20117 504.529 13.7786 504.529 19.4251V59.2984C504.529 64.945 499.951 69.5224 494.305 69.5224H11.2239C5.57741 69.5224 1 64.9449 1 59.2984V19.4251C1 13.7786 5.57741 9.20117 11.2239 9.20117H25.5068" stroke="#6981AC" stroke-width="1.5" stroke-linecap="round"/>
<path d="M50.3057 13.7118V15H40.6257V13.7118L48.6126 2.87237H40.9018V1.58416H50.2689V2.87237L42.2452 13.7118H50.3057ZM52.8754 15V1.58416H54.2924V15H52.8754ZM62.2848 9.75512H59.4324V15H58.0153V1.58416H62.5057C65.7814 1.56575 67.2169 3.53488 67.2169 5.61443C67.2169 6.77382 66.7752 7.78599 65.9839 8.54052C65.1741 9.29505 63.8675 9.75512 62.2848 9.75512ZM62.3952 2.90918H59.4324V8.4485H62.3216C63.5178 8.4485 64.4564 8.09885 64.9901 7.54675C65.5238 7.01306 65.7814 6.35055 65.7814 5.65124C65.7814 4.34462 65.0269 2.90918 62.3952 2.90918ZM68.0111 15.092H66.594L72.4462 1.05047H73.8632L68.0111 15.092ZM85.3426 9.75512H82.4901V15H81.0731V1.58416H85.5634C88.8392 1.56575 90.2746 3.53488 90.2746 5.61443C90.2746 6.77382 89.8329 7.78599 89.0416 8.54052C88.2319 9.29505 86.9253 9.75512 85.3426 9.75512ZM85.453 2.90918H82.4901V8.4485H85.3794C86.5756 8.4485 87.5142 8.09885 88.0478 7.54675C88.5815 7.01306 88.8392 6.35055 88.8392 5.65124C88.8392 4.34462 88.0847 2.90918 85.453 2.90918ZM95.6985 15.1656C94.8519 15.1656 94.0422 14.9448 93.3245 14.5399C92.6068 14.1167 92.0363 13.5462 91.6314 12.8284C91.2081 12.1107 91.0057 11.3194 91.0057 10.4544C91.0057 9.11102 91.4474 7.97002 92.3675 7.06827C93.2693 6.14812 94.3919 5.68804 95.7353 5.68804C98.3301 5.63283 100.502 7.8228 100.465 10.3992C100.502 13.0493 98.3301 15.2208 95.6985 15.1656ZM95.7353 13.9694C96.6923 13.9694 97.502 13.6198 98.1461 12.9389C98.7718 12.2579 99.0847 11.4298 99.0847 10.4544C99.0847 9.47908 98.7718 8.63254 98.1277 7.91482C97.4836 7.2155 96.6923 6.86584 95.6985 6.86584C94.7415 6.86584 93.9318 7.2155 93.3061 7.89641C92.6804 8.57733 92.3675 9.40546 92.3675 10.3992C92.3307 12.2947 93.7846 14.0062 95.7353 13.9694ZM108.847 12.4052C108.847 13.2149 108.534 13.8774 107.908 14.3743C107.283 14.8896 106.51 15.1472 105.608 15.1472C104.136 15.1472 103.179 14.5399 102.682 13.8222C102.314 13.3253 102.185 12.8836 102.13 12.4236L103.344 12.1107C103.492 12.9573 104.136 13.9878 105.59 13.9878C106.105 13.9878 106.547 13.8406 106.933 13.5646C107.301 13.3069 107.485 12.9389 107.485 12.4788C107.485 12.1107 107.338 11.8163 107.043 11.5954C106.749 11.3562 106.399 11.209 105.994 11.117L104.596 10.8041C103.087 10.4728 102.314 9.66311 102.314 8.4117C102.314 7.47314 102.792 6.70021 103.455 6.29534C104.099 5.89048 104.798 5.68804 105.424 5.68804C106.804 5.70645 107.688 6.24014 108.166 6.90265C108.497 7.36272 108.644 7.74919 108.718 8.13565L107.503 8.48531C107.411 8.11725 107.264 7.8228 106.97 7.45474C106.657 7.08668 106.105 6.86584 105.424 6.86584C104.927 6.86584 104.522 6.99466 104.173 7.28911C103.823 7.56516 103.657 7.91482 103.657 8.31968C103.657 9.0374 104.173 9.36866 104.982 9.57109L106.455 9.90235C107.651 10.1784 108.847 10.9329 108.847 12.4052ZM114.172 15.0736C112.184 15.0736 111.577 13.9694 111.577 12.626V7.03147H109.884V5.85367H111.577V3.22203H112.902V5.85367H115.221V7.03147H112.902V12.6076C112.902 13.4541 113.399 13.8958 114.393 13.8958C114.706 13.8958 114.982 13.859 115.221 13.8222V14.9264C114.927 15.0184 114.577 15.0736 114.172 15.0736ZM117.762 10.3808C117.762 11.669 118.295 12.7916 119.307 13.4541C119.823 13.8038 120.412 13.9694 121.074 13.9694C121.847 13.9694 122.528 13.7118 122.951 13.3989C123.154 13.2517 123.338 13.0677 123.522 12.8468C123.853 12.4052 124 12.1107 124.129 11.7795L125.362 12.1843C125.16 12.902 124.663 13.6014 123.963 14.1719C123.264 14.7608 122.197 15.1656 121.056 15.1656C118.443 15.2024 116.363 13.1597 116.4 10.4544C116.4 9.55269 116.621 8.74295 117.044 8.00683C117.467 7.27071 118.038 6.70021 118.755 6.29534C119.473 5.89048 120.246 5.68804 121.111 5.68804C122.142 5.68804 123.062 5.98249 123.835 6.53458C124.626 7.12348 125.123 7.8044 125.307 8.61413L124.092 9.019C123.89 8.28288 122.951 6.88424 121.074 6.88424C120.117 6.88424 119.326 7.2155 118.7 7.89641C118.074 8.57733 117.762 9.40546 117.762 10.3808ZM131.624 15.1656C130.777 15.1656 129.968 14.9448 129.25 14.5399C128.532 14.1167 127.962 13.5462 127.557 12.8284C127.134 12.1107 126.931 11.3194 126.931 10.4544C126.931 9.11102 127.373 7.97002 128.293 7.06827C129.195 6.14812 130.317 5.68804 131.661 5.68804C134.256 5.63283 136.427 7.8228 136.39 10.3992C136.427 13.0493 134.256 15.2208 131.624 15.1656ZM131.661 13.9694C132.618 13.9694 133.428 13.6198 134.072 12.9389C134.697 12.2579 135.01 11.4298 135.01 10.4544C135.01 9.47908 134.697 8.63254 134.053 7.91482C133.409 7.2155 132.618 6.86584 131.624 6.86584C130.667 6.86584 129.857 7.2155 129.232 7.89641C128.606 8.57733 128.293 9.40546 128.293 10.3992C128.256 12.2947 129.71 14.0062 131.661 13.9694ZM138.074 10.4176C138.074 9.22143 138.515 8.04364 139.252 7.16029C139.988 6.25854 141.11 5.68804 142.362 5.68804C143.208 5.68804 143.963 5.92728 144.533 6.33215C145.104 6.73702 145.509 7.17869 145.913 7.76759V1.05047H147.238V15H145.932V13.0493C145.085 14.4479 143.889 15.1288 142.362 15.1288C141.092 15.1288 139.969 14.5767 139.233 13.7118C138.515 12.8468 138.074 11.669 138.074 10.4176ZM142.638 13.9694C144.515 13.9878 145.969 12.2395 145.932 10.3992C145.932 9.20303 145.343 8.06204 144.331 7.38113C143.815 7.04987 143.245 6.88424 142.638 6.88424C141.662 6.88424 140.889 7.2155 140.319 7.89641C139.73 8.57733 139.436 9.42387 139.436 10.4544C139.436 11.7243 139.951 12.81 140.926 13.4725C141.423 13.8038 141.994 13.9694 142.638 13.9694ZM158.335 10.8409H150.937C150.992 11.7427 151.324 12.4788 151.949 13.0677C152.575 13.675 153.329 13.9694 154.213 13.9694C155.593 13.9694 156.624 13.2885 157.047 12.0187L158.225 12.3868C157.967 13.2517 157.47 13.9326 156.734 14.4295C155.998 14.908 155.17 15.1656 154.231 15.1656C153.366 15.1656 152.575 14.9448 151.857 14.5215C151.139 14.0982 150.587 13.5278 150.201 12.7916C149.796 12.0739 149.594 11.2826 149.594 10.4176C149.594 9.5895 149.778 8.81657 150.164 8.09885C150.532 7.36272 151.066 6.79223 151.765 6.35055C152.446 5.90888 153.219 5.68804 154.047 5.68804C154.949 5.68804 155.74 5.89048 156.403 6.31375C157.065 6.71862 157.562 7.28911 157.875 7.98843C158.206 8.68774 158.353 9.47908 158.353 10.3992C158.353 10.4912 158.353 10.6385 158.335 10.8409ZM150.955 9.69991H157.01C156.918 8.85337 156.605 8.17246 156.09 7.63877C155.575 7.12348 154.894 6.86584 154.047 6.86584C153.256 6.86584 152.593 7.14189 152.004 7.69398C151.416 8.26447 151.066 8.92698 150.955 9.69991Z" fill="#1F4283" fill-opacity="0.63"/>
</svg>
