<svg width="506" height="71" viewBox="0 0 506 71" fill="none" xmlns="http://www.w3.org/2000/svg">
<path d="M253.5 9.20117H494.305C499.951 9.20117 504.529 13.7786 504.529 19.4251V59.2984C504.529 64.945 499.951 69.5224 494.305 69.5224H11.2239C5.57741 69.5224 1 64.9449 1 59.2984V19.4251C1 13.7786 5.57741 9.20117 11.2239 9.20117H25.5068" stroke="#6981AC" stroke-width="1.5" stroke-linecap="round"/>
<path d="M51.7412 15L50.2689 11.577H42.9629L41.4906 15H40.0552L45.8338 1.58416H47.4348L53.2318 15H51.7412ZM49.7352 10.2888L46.6067 3.038L43.4966 10.2888H49.7352ZM63.9549 10.4176C63.9549 12.0739 63.2372 13.5646 61.9122 14.4663C61.2497 14.908 60.4951 15.1288 59.6486 15.1288C58.1579 15.1288 56.9801 14.4663 56.1336 13.1229V19.5088H54.7902V5.85367H56.0968V7.8412C57.0354 6.40576 58.2132 5.68804 59.6486 5.68804C60.9184 5.68804 62.0594 6.25854 62.7955 7.16029C63.5132 8.04364 63.9549 9.22143 63.9549 10.4176ZM59.3909 13.9694C60.3663 13.9694 61.1392 13.6198 61.7281 12.9573C62.2986 12.2763 62.5931 11.4482 62.5931 10.4544C62.5931 9.16622 62.0962 8.04364 61.1024 7.38113C60.624 7.04987 60.0351 6.88424 59.3909 6.88424C57.5322 6.84744 56.06 8.57733 56.1152 10.3992C56.1152 11.3562 56.4096 12.2027 57.0354 12.902C57.6611 13.6198 58.434 13.9694 59.3909 13.9694ZM69.2067 15.0736C67.2192 15.0736 66.6119 13.9694 66.6119 12.626V7.03147H64.9188V5.85367H66.6119V3.22203H67.9369V5.85367H70.2557V7.03147H67.9369V12.6076C67.9369 13.4541 68.4338 13.8958 69.4275 13.8958C69.7404 13.8958 70.0164 13.859 70.2557 13.8222V14.9264C69.9612 15.0184 69.6116 15.0736 69.2067 15.0736ZM72.3447 17.5028V16.8035C72.7128 16.7299 73.0256 16.5275 73.3017 16.1778C73.5777 15.8097 73.7065 15.4417 73.7249 15.0184C73.5961 15.092 73.4489 15.1288 73.2833 15.1288C72.6391 15.1288 72.1975 14.6319 72.1975 13.9878C72.1975 13.675 72.3079 13.4173 72.5471 13.1965C72.7864 12.9757 73.0624 12.8652 73.3937 12.8652C73.7985 12.8652 74.1298 13.0309 74.3506 13.3437C74.5899 13.6382 74.7003 14.0246 74.7003 14.4479C74.7003 15.2208 74.4979 15.9018 74.0746 16.4722C73.6697 17.0611 73.0808 17.3924 72.3447 17.5028ZM85.7173 12.4052C85.7173 13.2149 85.4044 13.8774 84.7787 14.3743C84.153 14.8896 83.3801 15.1472 82.4783 15.1472C81.0061 15.1472 80.0491 14.5399 79.5522 13.8222C79.1842 13.3253 79.0554 12.8836 79.0001 12.4236L80.2147 12.1107C80.362 12.9573 81.0061 13.9878 82.4599 13.9878C82.9752 13.9878 83.4169 13.8406 83.8033 13.5646C84.1714 13.3069 84.3554 12.9389 84.3554 12.4788C84.3554 12.1107 84.2082 11.8163 83.9138 11.5954C83.6193 11.3562 83.2697 11.209 82.8648 11.117L81.4662 10.8041C79.9571 10.4728 79.1842 9.66311 79.1842 8.4117C79.1842 7.47314 79.6627 6.70021 80.3252 6.29534C80.9693 5.89048 81.6686 5.68804 82.2943 5.68804C83.6745 5.70645 84.5579 6.24014 85.0364 6.90265C85.3676 7.36272 85.5148 7.74919 85.5884 8.13565L84.3738 8.48531C84.2818 8.11725 84.1346 7.8228 83.8402 7.45474C83.5273 7.08668 82.9752 6.86584 82.2943 6.86584C81.7974 6.86584 81.3925 6.99466 81.0429 7.28911C80.6932 7.56516 80.5276 7.91482 80.5276 8.31968C80.5276 9.0374 81.0429 9.36866 81.8526 9.57109L83.3249 9.90235C84.5211 10.1784 85.7173 10.9329 85.7173 12.4052ZM87.9814 5.85367H89.3064V11.1722C89.3064 12.0187 89.5273 12.6996 89.969 13.1965C90.3922 13.7118 91.0179 13.951 91.8461 13.951C92.6374 13.951 93.2815 13.675 93.7968 13.1229C94.3121 12.5708 94.5697 11.8899 94.5697 11.0617V5.85367H95.8947V15H94.5881V13.3253C93.852 14.5583 92.8214 15.184 91.4412 15.184C90.3554 15.184 89.5089 14.8344 88.8832 14.1719C88.2759 13.4909 87.9814 12.6076 87.9814 11.5034V5.85367ZM98.874 3.29564C98.69 3.09321 98.5796 2.85397 98.5796 2.57792C98.5796 2.30188 98.69 2.06264 98.874 1.8602C99.0581 1.67617 99.3157 1.56575 99.5917 1.56575C99.8678 1.56575 100.107 1.67617 100.291 1.8602C100.494 2.06264 100.586 2.30188 100.586 2.57792C100.586 2.85397 100.494 3.09321 100.291 3.29564C100.107 3.47967 99.8678 3.59009 99.5917 3.59009C99.3157 3.59009 99.0581 3.47967 98.874 3.29564ZM98.9108 15V5.85367H100.254V15H98.9108ZM106.48 15.0736C104.493 15.0736 103.885 13.9694 103.885 12.626V7.03147H102.192V5.85367H103.885V3.22203H105.21V5.85367H107.529V7.03147H105.21V12.6076C105.21 13.4541 105.707 13.8958 106.701 13.8958C107.014 13.8958 107.29 13.859 107.529 13.8222V14.9264C107.235 15.0184 106.885 15.0736 106.48 15.0736ZM117.449 10.8409H110.051C110.107 11.7427 110.438 12.4788 111.063 13.0677C111.689 13.675 112.444 13.9694 113.327 13.9694C114.707 13.9694 115.738 13.2885 116.161 12.0187L117.339 12.3868C117.081 13.2517 116.584 13.9326 115.848 14.4295C115.112 14.908 114.284 15.1656 113.345 15.1656C112.481 15.1656 111.689 14.9448 110.971 14.5215C110.254 14.0982 109.702 13.5278 109.315 12.7916C108.91 12.0739 108.708 11.2826 108.708 10.4176C108.708 9.5895 108.892 8.81657 109.278 8.09885C109.646 7.36272 110.18 6.79223 110.879 6.35055C111.56 5.90888 112.333 5.68804 113.161 5.68804C114.063 5.68804 114.855 5.89048 115.517 6.31375C116.18 6.71862 116.676 7.28911 116.989 7.98843C117.321 8.68774 117.468 9.47908 117.468 10.3992C117.468 10.4912 117.468 10.6385 117.449 10.8409ZM110.07 9.69991H116.124C116.032 8.85337 115.719 8.17246 115.204 7.63877C114.689 7.12348 114.008 6.86584 113.161 6.86584C112.37 6.86584 111.708 7.14189 111.119 7.69398C110.53 8.26447 110.18 8.92698 110.07 9.69991ZM119.61 17.5028V16.8035C119.978 16.7299 120.291 16.5275 120.567 16.1778C120.843 15.8097 120.972 15.4417 120.991 15.0184C120.862 15.092 120.715 15.1288 120.549 15.1288C119.905 15.1288 119.463 14.6319 119.463 13.9878C119.463 13.675 119.574 13.4173 119.813 13.1965C120.052 12.9757 120.328 12.8652 120.659 12.8652C121.064 12.8652 121.396 13.0309 121.616 13.3437C121.856 13.6382 121.966 14.0246 121.966 14.4479C121.966 15.2208 121.764 15.9018 121.34 16.4722C120.935 17.0611 120.347 17.3924 119.61 17.5028ZM135.026 10.8409H127.628C127.683 11.7427 128.014 12.4788 128.64 13.0677C129.266 13.675 130.02 13.9694 130.903 13.9694C132.284 13.9694 133.314 13.2885 133.738 12.0187L134.915 12.3868C134.658 13.2517 134.161 13.9326 133.425 14.4295C132.689 14.908 131.86 15.1656 130.922 15.1656C130.057 15.1656 129.266 14.9448 128.548 14.5215C127.83 14.0982 127.278 13.5278 126.892 12.7916C126.487 12.0739 126.284 11.2826 126.284 10.4176C126.284 9.5895 126.468 8.81657 126.855 8.09885C127.223 7.36272 127.757 6.79223 128.456 6.35055C129.137 5.90888 129.91 5.68804 130.738 5.68804C131.64 5.68804 132.431 5.89048 133.093 6.31375C133.756 6.71862 134.253 7.28911 134.566 7.98843C134.897 8.68774 135.044 9.47908 135.044 10.3992C135.044 10.4912 135.044 10.6385 135.026 10.8409ZM127.646 9.69991H133.701C133.609 8.85337 133.296 8.17246 132.781 7.63877C132.265 7.12348 131.584 6.86584 130.738 6.86584C129.946 6.86584 129.284 7.14189 128.695 7.69398C128.106 8.26447 127.757 8.92698 127.646 9.69991ZM140.195 15.0736C138.208 15.0736 137.6 13.9694 137.6 12.626V7.03147H135.907V5.85367H137.6V3.22203H138.925V5.85367H141.244V7.03147H138.925V12.6076C138.925 13.4541 139.422 13.8958 140.416 13.8958C140.729 13.8958 141.005 13.859 141.244 13.8222V14.9264C140.95 15.0184 140.6 15.0736 140.195 15.0736ZM143.785 10.3808C143.785 11.669 144.318 12.7916 145.331 13.4541C145.846 13.8038 146.435 13.9694 147.097 13.9694C147.87 13.9694 148.551 13.7118 148.974 13.3989C149.177 13.2517 149.361 13.0677 149.545 12.8468C149.876 12.4052 150.023 12.1107 150.152 11.7795L151.385 12.1843C151.183 12.902 150.686 13.6014 149.987 14.1719C149.287 14.7608 148.22 15.1656 147.079 15.1656C144.466 15.2024 142.386 13.1597 142.423 10.4544C142.423 9.55269 142.644 8.74295 143.067 8.00683C143.49 7.27071 144.061 6.70021 144.778 6.29534C145.496 5.89048 146.269 5.68804 147.134 5.68804C148.165 5.68804 149.085 5.98249 149.858 6.53458C150.649 7.12348 151.146 7.8044 151.33 8.61413L150.115 9.019C149.913 8.28288 148.974 6.88424 147.097 6.88424C146.14 6.88424 145.349 7.2155 144.723 7.89641C144.098 8.57733 143.785 9.40546 143.785 10.3808ZM157.808 8.87178V8.4301C157.808 6.66341 158.232 5.06234 159.097 3.6085C159.943 2.15465 161.139 0.976856 162.685 0.0935072L163.237 0.958453C160.495 2.72515 159.17 5.15435 159.17 8.4485V8.85337C159.17 12.1475 160.477 14.5399 163.237 16.325L162.685 17.2268C161.139 16.325 159.943 15.1472 159.097 13.6934C158.232 12.2395 157.808 10.6385 157.808 8.87178ZM176.024 8.26447C176.024 9.53429 175.73 10.6937 175.16 11.7427C174.571 12.7916 173.761 13.6198 172.73 14.2271C171.681 14.8344 170.54 15.1472 169.252 15.1472C168.314 15.1472 167.43 14.9632 166.584 14.6135C165.756 14.2639 165.038 13.7854 164.449 13.1597C163.86 12.5708 163.4 11.8531 163.05 11.0065C162.719 10.16 162.535 9.27664 162.535 8.33809C162.535 7.06827 162.829 5.90888 163.418 4.85991C163.989 3.81093 164.799 2.96439 165.848 2.35709C166.878 1.74978 168.038 1.45533 169.307 1.45533C170.246 1.45533 171.129 1.62096 171.976 1.97062C172.804 2.33868 173.522 2.81716 174.111 3.40606C174.699 4.03177 175.178 4.74949 175.509 5.57762C175.859 6.42417 176.024 7.30751 176.024 8.26447ZM174.571 8.33809C174.571 6.82903 174.019 5.4304 173.098 4.41823C172.178 3.40606 170.798 2.76195 169.252 2.76195C168.258 2.76195 167.357 3.0196 166.547 3.49808C165.737 4.01336 165.111 4.67587 164.67 5.50401C164.228 6.35055 164.007 7.27071 164.007 8.26447C164.007 9.75512 164.559 11.1722 165.48 12.1659C166.4 13.1781 167.78 13.8222 169.307 13.8222C170.301 13.8222 171.203 13.5646 172.013 13.0677C172.841 12.5892 173.466 11.9083 173.908 11.0801C174.35 10.252 174.571 9.33185 174.571 8.33809ZM187.619 10.4176C187.619 12.0739 186.901 13.5646 185.576 14.4663C184.913 14.908 184.159 15.1288 183.312 15.1288C181.822 15.1288 180.644 14.4663 179.797 13.1229V19.5088H178.454V5.85367H179.76V7.8412C180.699 6.40576 181.877 5.68804 183.312 5.68804C184.582 5.68804 185.723 6.25854 186.459 7.16029C187.177 8.04364 187.619 9.22143 187.619 10.4176ZM183.055 13.9694C184.03 13.9694 184.803 13.6198 185.392 12.9573C185.962 12.2763 186.257 11.4482 186.257 10.4544C186.257 9.16622 185.76 8.04364 184.766 7.38113C184.288 7.04987 183.699 6.88424 183.055 6.88424C181.196 6.84744 179.724 8.57733 179.779 10.3992C179.779 11.3562 180.073 12.2027 180.699 12.902C181.325 13.6198 182.098 13.9694 183.055 13.9694ZM192.87 15.0736C190.883 15.0736 190.275 13.9694 190.275 12.626V7.03147H188.582V5.85367H190.275V3.22203H191.601V5.85367H193.919V7.03147H191.601V12.6076C191.601 13.4541 192.097 13.8958 193.091 13.8958C193.404 13.8958 193.68 13.859 193.919 13.8222V14.9264C193.625 15.0184 193.275 15.0736 192.87 15.0736ZM196.137 3.29564C195.953 3.09321 195.843 2.85397 195.843 2.57792C195.843 2.30188 195.953 2.06264 196.137 1.8602C196.321 1.67617 196.579 1.56575 196.855 1.56575C197.131 1.56575 197.37 1.67617 197.554 1.8602C197.757 2.06264 197.849 2.30188 197.849 2.57792C197.849 2.85397 197.757 3.09321 197.554 3.29564C197.37 3.47967 197.131 3.59009 196.855 3.59009C196.579 3.59009 196.321 3.47967 196.137 3.29564ZM196.174 15V5.85367H197.517V15H196.174ZM204.571 15.1656C203.725 15.1656 202.915 14.9448 202.197 14.5399C201.48 14.1167 200.909 13.5462 200.504 12.8284C200.081 12.1107 199.879 11.3194 199.879 10.4544C199.879 9.11102 200.32 7.97002 201.24 7.06827C202.142 6.14812 203.265 5.68804 204.608 5.68804C207.203 5.63283 209.375 7.8228 209.338 10.3992C209.375 13.0493 207.203 15.2208 204.571 15.1656ZM204.608 13.9694C205.565 13.9694 206.375 13.6198 207.019 12.9389C207.645 12.2579 207.958 11.4298 207.958 10.4544C207.958 9.47908 207.645 8.63254 207.001 7.91482C206.356 7.2155 205.565 6.86584 204.571 6.86584C203.614 6.86584 202.805 7.2155 202.179 7.89641C201.553 8.57733 201.24 9.40546 201.24 10.3992C201.204 12.2947 202.657 14.0062 204.608 13.9694ZM219.615 15H218.272V9.68151C218.272 8.83497 218.069 8.17246 217.628 7.65717C217.205 7.16029 216.579 6.90265 215.751 6.90265C214.959 6.90265 214.297 7.17869 213.782 7.73078C213.285 8.28288 213.027 8.96379 213.027 9.79193V15H211.684V5.85367H212.99V7.52835C213.726 6.29534 214.775 5.68804 216.156 5.68804C217.241 5.68804 218.088 6.0193 218.714 6.68181C219.302 7.36272 219.615 8.24607 219.615 9.35026V15ZM225.502 9.71832H228.041V9.11102C228.041 7.63877 227.232 6.88424 225.704 6.88424C224.968 6.88424 224.342 7.12348 223.974 7.49154C223.606 7.85961 223.386 8.28288 223.312 8.74295L222.024 8.46691C222.042 8.00683 222.484 7.10508 223.312 6.44257C223.864 6.0193 224.747 5.68804 225.741 5.68804C227.416 5.68804 228.52 6.31375 229.072 7.58356C229.256 8.00683 229.348 8.50371 229.348 9.09261V11.669C229.348 13.1965 229.403 14.3191 229.495 15H228.17C228.097 14.5951 228.041 14.0614 228.041 13.3989C227.269 14.5767 226.256 15.1656 224.95 15.1656C224.048 15.1656 223.293 14.908 222.741 14.3927C222.171 13.8958 221.876 13.2517 221.876 12.4604V12.3684C221.876 10.3808 223.864 9.71832 225.502 9.71832ZM228.041 11.1354V10.8225H225.483C224.95 10.8225 224.453 10.9145 223.993 11.1354C223.533 11.3378 223.22 11.7795 223.22 12.35C223.22 12.8652 223.404 13.2517 223.79 13.5462C224.158 13.8406 224.619 13.9878 225.189 13.9878C225.999 13.9878 226.68 13.7118 227.232 13.1781C227.765 12.6628 228.041 11.9635 228.041 11.1354ZM232.261 15V1.03206H233.605V15H232.261ZM241.008 8.4301V8.87178C241.008 10.6385 240.585 12.2579 239.739 13.7118C238.892 15.1472 237.696 16.325 236.132 17.2268L235.579 16.325C238.34 14.5399 239.646 12.1475 239.646 8.85337V8.4485C239.646 5.15435 238.321 2.72515 235.579 0.958453L236.132 0.0935072C237.696 0.976856 238.892 2.15465 239.739 3.59009C240.585 5.04394 241.008 6.66341 241.008 8.4301Z" fill="#1F4283" fill-opacity="0.63"/>
</svg>
